<?xml version="1.0" standalone="no"?>
<!DOCTYPE svg PUBLIC "-//W3C//DTD SVG 20010904//EN"
   "http://www.w3.org/TR/2001/REC-SVG-20010904/DTD/svg10.dtd">

<svg xmlns="http://www.w3.org/2000/svg" xmlns:xlink="http://www.w3.org/1999/xlink" width="227px" height="227px">
   <g id="cvpage1_top" width="227px" height="227px" transform="translate(0,0)">
      <rect x="14.173px" y="14.173px" width="198.425px" height="198.425px" fill="#EBEBEB" fill-rule="nonzero" stroke="#000" />
      <rect x="42.52px" y="42.52px" width="141.732px" height="141.732px" fill="#FFF" fill-rule="evenodd" stroke="none" />
      <line x1="137.745px" y1="42.418px" x2="137.745px" y2="42.418px" fill="#FF8E8E" fill-rule="nonzero" stroke="#8E0000" />
      <polyline points="137.745,42.418 107.717,70.866 172.914,93.543 165.074,42.585 " fill="#FF8E8E" fill-rule="nonzero" stroke="#8E0000" />
      <polyline points="165.074,42.585 161.575,19.843 137.745,42.468 " fill="#FFE3E3" fill-rule="evenodd" stroke="none" />
      <path d="M 165.074 42.585 L 164.618 39.62 M 164.161 36.654 L 163.705 33.689 M 163.249 30.724 L 162.793 27.759 M 162.337 24.794 L 161.881 21.829 M 160.857 20.524 L 158.681 22.59 M 156.506 24.656 L 154.33 26.721 M 152.155 28.787 L 149.979 30.853 M 147.803 32.918 L 145.628 34.984 M 143.452 37.05 L 141.277 39.115 M 139.101 41.181 L 137.745 42.468 L 137.745 42.468 " fill="none" stroke="#FF8E8E" />
      <rect x="42.52px" y="42.52px" width="141.732px" height="141.732px" fill="none" stroke="#000" />
      <line x1="113.386px" y1="212.599px" x2="113.386px" y2="19.745px" fill="none" stroke="#000" />
      <polygon points="113.386,14.173 115.694,19.745 111.078,19.745 113.386,14.173 " fill="#000" fill-rule="nonzero" stroke="#000" stroke-width="0.1px" />
      <line x1="14.173px" y1="113.386px" x2="207.027px" y2="113.386px" fill="none" stroke="#000" />
      <polygon points="212.599,113.386 207.027,115.694 207.027,111.078 212.599,113.386 " fill="#000" fill-rule="nonzero" stroke="#000" stroke-width="0.1px" />
      <g transform="translate(99.213,28.346)" font-size="10px" font-family="Symbol, fantasy">
         <text x="11.339px" y="10px" text-anchor="end">
            1
         </text>
      </g>
      <g transform="translate(184.252,113.386)" font-size="10px" font-family="Symbol, fantasy">
         <text x="5.669px" y="12px" text-anchor="middle" baseline-shift="sub">
            1
         </text>
      </g>
      <g transform="translate(28.346,113.386)" font-size="10px" font-family="Symbol, fantasy">
         <text x="11.339px" y="12px" text-anchor="end" baseline-shift="sub">
            -1
         </text>
      </g>
      <g transform="translate(99.213,184.252)" font-size="10px" font-family="Symbol, fantasy">
         <text x="11.339px" y="12px" text-anchor="end" baseline-shift="sub">
            -1
         </text>
      </g>
      <g transform="translate(102.047,113.386)" font-size="10px" font-family="'Times New Roman', serif">
         <text x="0px" y="11px" baseline-shift="sub">
            O
         </text>
      </g>
      <g transform="translate(187.087,99.213)" font-size="10px" font-family="'Times New Roman', serif">
         <text x="12.621px" y="9px" text-anchor="middle" font-style="oblique">
            x<tspan font-style="normal"> / </tspan>w
         </text>
      </g>
      <g transform="translate(85.04,14.173)" font-size="10px" font-family="'Times New Roman', serif">
         <text x="14.039px" y="9px" text-anchor="middle" font-style="oblique">
            y<tspan font-style="normal"> / </tspan>w
         </text>
      </g>
   </g>
</svg>