<?xml version="1.0" standalone="no"?>
<!DOCTYPE svg PUBLIC "-//W3C//DTD SVG 20010904//EN"
   "http://www.w3.org/TR/2001/REC-SVG-20010904/DTD/svg10.dtd">

<svg id="cvpage4_top" width="312px" height="255px" xmlns="http://www.w3.org/2000/svg" xmlns:xlink="http://www.w3.org/1999/xlink">
   <rect x="14.173px" y="14.173px" width="212.599px" height="226.772px" fill="#EBEBEB" fill-rule="nonzero" stroke="#000" />
   <rect x="42.52px" y="28.346px" width="56.693px" height="56.693px" fill="#E3F1FF" fill-rule="nonzero" stroke="#000" />
   <line x1="93.434px" y1="85.04px" x2="93.434px" y2="110.551px" fill="none" stroke="#000" />
   <line x1="87.778px" y1="85.04px" x2="87.778px" y2="110.551px" fill="none" stroke="#000" />
   <line x1="82.123px" y1="85.04px" x2="82.123px" y2="110.551px" fill="none" stroke="#000" />
   <line x1="76.467px" y1="85.04px" x2="76.467px" y2="110.551px" fill="none" stroke="#000" />
   <line x1="65.156px" y1="85.04px" x2="65.156px" y2="110.551px" fill="none" stroke="#000" />
   <line x1="59.5px" y1="85.04px" x2="59.5px" y2="110.551px" fill="none" stroke="#000" />
   <line x1="53.845px" y1="85.04px" x2="53.845px" y2="110.551px" fill="none" stroke="#000" />
   <line x1="48.189px" y1="85.04px" x2="48.189px" y2="110.551px" fill="none" stroke="#000" />
   <line x1="192.407px" y1="85.04px" x2="192.407px" y2="110.551px" fill="none" stroke="#000" />
   <line x1="186.751px" y1="85.04px" x2="186.751px" y2="110.551px" fill="none" stroke="#000" />
   <line x1="181.095px" y1="85.04px" x2="181.095px" y2="110.551px" fill="none" stroke="#000" />
   <line x1="175.44px" y1="85.04px" x2="175.44px" y2="110.551px" fill="none" stroke="#000" />
   <line x1="164.129px" y1="85.04px" x2="164.129px" y2="110.551px" fill="none" stroke="#000" />
   <line x1="158.473px" y1="85.04px" x2="158.473px" y2="110.551px" fill="none" stroke="#000" />
   <line x1="152.817px" y1="85.04px" x2="152.817px" y2="110.551px" fill="none" stroke="#000" />
   <line x1="147.162px" y1="85.04px" x2="147.162px" y2="110.551px" fill="none" stroke="#000" />
   <line x1="99.213px" y1="48.189px" x2="141.732px" y2="48.189px" fill="none" stroke="#000" />
   <line x1="99.213px" y1="53.858px" x2="141.732px" y2="53.858px" fill="none" stroke="#000" />
   <line x1="99.213px" y1="59.528px" x2="141.732px" y2="59.528px" fill="none" stroke="#000" />
   <line x1="99.213px" y1="65.197px" x2="141.732px" y2="65.197px" fill="none" stroke="#000" />
   <rect x="28.346px" y="110.551px" width="85.04px" height="116.221px" fill="#FFF" fill-rule="nonzero" stroke="#000" />
   <rect x="141.732px" y="28.346px" width="56.693px" height="56.693px" fill="#E3FFE3" fill-rule="nonzero" stroke="#000" />
   <line x1="198.425px" y1="56.693px" x2="240.945px" y2="56.693px" fill="none" stroke="#000" />
   <rect x="240.945px" y="36.85px" width="56.693px" height="39.685px" fill="#919191" fill-rule="nonzero" stroke="#000" />
   <rect x="243.78px" y="39.685px" width="51.024px" height="34.016px" fill="#000" fill-rule="nonzero" stroke="#000" />
   <path d="M 121.89 22.677 L 124.89 22.677 M 127.89 22.677 L 130.89 22.677 M 133.89 22.677 L 136.89 22.677 M 139.89 22.677 L 142.89 22.677 M 145.89 22.677 L 148.89 22.677 M 151.89 22.677 L 154.89 22.677 M 157.89 22.677 L 160.89 22.677 M 163.89 22.677 L 166.89 22.677 M 169.89 22.677 L 172.89 22.677 M 175.89 22.677 L 178.89 22.677 M 181.89 22.677 L 184.89 22.677 M 187.89 22.677 L 190.89 22.677 M 193.89 22.677 L 196.89 22.677 M 199.89 22.677 L 202.89 22.677 M 205.89 22.677 L 208.89 22.677 M 211.89 22.677 L 214.89 22.677 M 217.89 22.677 L 218.268 22.677 L 218.268 25.299 M 218.268 28.299 L 218.268 31.299 M 218.268 34.299 L 218.268 37.299 M 218.268 40.299 L 218.268 43.299 M 218.268 46.299 L 218.268 49.299 M 218.268 52.299 L 218.268 55.299 M 218.268 58.299 L 218.268 61.299 M 218.268 64.299 L 218.268 67.299 M 218.268 70.299 L 218.268 73.299 M 218.268 76.299 L 218.268 79.299 M 218.268 82.299 L 218.268 85.299 M 218.268 88.299 L 218.268 91.299 M 218.268 94.299 L 218.268 97.299 M 218.268 100.299 L 218.268 103.299 M 218.268 106.299 L 218.268 109.299 M 218.268 112.299 L 218.268 115.299 M 218.268 118.299 L 218.268 121.299 M 218.268 124.299 L 218.268 127.299 M 218.268 130.299 L 218.268 133.299 M 218.268 136.299 L 218.268 139.299 M 218.268 142.299 L 218.268 145.299 M 218.268 148.299 L 218.268 151.299 M 218.268 154.299 L 218.268 157.299 M 218.268 160.299 L 218.268 163.299 M 218.268 166.299 L 218.268 169.299 M 218.268 172.299 L 218.268 175.299 M 218.268 178.299 L 218.268 181.299 M 218.268 184.299 L 218.268 187.299 M 218.268 190.299 L 218.268 193.299 M 218.268 196.299 L 218.268 199.299 M 218.268 202.299 L 218.268 205.299 M 218.268 208.299 L 218.268 211.299 M 218.268 214.299 L 218.268 217.299 M 218.268 220.299 L 218.268 223.299 M 218.268 226.299 L 218.268 229.299 M 218.268 232.299 L 218.268 232.441 L 215.41 232.441 M 212.41 232.441 L 209.41 232.441 M 206.41 232.441 L 203.41 232.441 M 200.41 232.441 L 197.41 232.441 M 194.41 232.441 L 191.41 232.441 M 188.41 232.441 L 185.41 232.441 M 182.41 232.441 L 179.41 232.441 M 176.41 232.441 L 173.41 232.441 M 170.41 232.441 L 167.41 232.441 M 164.41 232.441 L 161.41 232.441 M 158.41 232.441 L 155.41 232.441 M 152.41 232.441 L 149.41 232.441 M 146.41 232.441 L 143.41 232.441 M 140.41 232.441 L 137.41 232.441 M 134.41 232.441 L 131.41 232.441 M 128.41 232.441 L 125.41 232.441 M 122.41 232.441 L 121.89 232.441 L 121.89 229.962 M 121.89 226.962 L 121.89 223.962 M 121.89 220.962 L 121.89 217.962 M 121.89 214.962 L 121.89 211.962 M 121.89 208.962 L 121.89 205.962 M 121.89 202.962 L 121.89 199.962 M 121.89 196.962 L 121.89 193.962 M 121.89 190.962 L 121.89 187.962 M 121.89 184.962 L 121.89 181.962 M 121.89 178.962 L 121.89 175.962 M 121.89 172.962 L 121.89 169.962 M 121.89 166.962 L 121.89 163.962 M 121.89 160.962 L 121.89 157.962 M 121.89 154.962 L 121.89 151.962 M 121.89 148.962 L 121.89 145.962 M 121.89 142.962 L 121.89 139.962 M 121.89 136.962 L 121.89 133.962 M 121.89 130.962 L 121.89 127.962 M 121.89 124.962 L 121.89 121.962 M 121.89 118.962 L 121.89 115.962 M 121.89 112.962 L 121.89 109.962 M 121.89 106.962 L 121.89 103.962 M 121.89 100.962 L 121.89 97.962 M 121.89 94.962 L 121.89 91.962 M 121.89 88.962 L 121.89 85.962 M 121.89 82.962 L 121.89 79.962 M 121.89 76.962 L 121.89 73.962 M 121.89 70.962 L 121.89 67.962 M 121.89 64.962 L 121.89 61.962 M 121.89 58.962 L 121.89 55.962 M 121.89 52.962 L 121.89 49.962 M 121.89 46.962 L 121.89 43.962 M 121.89 40.962 L 121.89 37.962 M 121.89 34.962 L 121.89 31.962 M 121.89 28.962 L 121.89 25.962 M 121.89 22.962 L 121.89 22.677 L 121.89 22.677 Z" fill="none" stroke="#000" />
   <rect x="127.559px" y="110.551px" width="85.04px" height="116.221px" fill="#FFF" fill-rule="nonzero" stroke="#000" />
   <rect x="133.228px" y="116.221px" width="73.701px" height="31.181px" fill="#FFE3E3" fill-rule="nonzero" stroke="#000" />
   <rect x="133.228px" y="153.071px" width="73.701px" height="31.181px" fill="#FFF1E3" fill-rule="nonzero" stroke="#000" />
   <rect x="34.016px" y="116.221px" width="73.701px" height="31.181px" fill="#FFE3E3" fill-rule="nonzero" stroke="#000" />
   <rect x="133.228px" y="189.922px" width="73.701px" height="31.181px" fill="#FFF1E3" fill-rule="nonzero" stroke="#000" />
   <rect x="34.016px" y="153.071px" width="73.701px" height="68.032px" fill="#FFF1E3" fill-rule="nonzero" stroke="#000" />
   <g transform="translate(42.52,36.85)" font-size="10px" font-family="Meiryo, sans-serif">
      <text x="28.346px" y="9.6px" text-anchor="middle">
         CPU
      </text>
   </g>
   <g transform="translate(141.732,36.85)" font-size="10px" font-family="Meiryo, sans-serif">
      <text x="28.346px" y="9.6px" text-anchor="middle">
         GPU
      </text>
   </g>
   <g transform="translate(240.945,48.189)" font-size="10px" fill="#FFFFFF" font-family="Meiryo, sans-serif">
      <text x="28.346px" y="9.6px" text-anchor="middle">
         Display
      </text>
   </g>
   <g transform="translate(34.016,124.725)" font-size="10px" font-family="Meiryo, sans-serif">
      <text x="36.85px" y="9.6px" text-anchor="middle">
         Program
      </text>
   </g>
   <g transform="translate(127.559,192.756)" font-size="10px" font-family="Meiryo, sans-serif">
      <text x="42.52px" y="8.96px" text-anchor="middle">
         Fragment
      </text>
      <text x="42.52px" y="20.96px" text-anchor="middle">
         Data
      </text>
   </g>
   <g transform="translate(127.559,119.055)" font-size="10px" font-family="Meiryo, sans-serif">
      <text x="42.52px" y="8.96px" text-anchor="middle">
         Program
      </text>
      <text x="42.52px" y="20.96px" text-anchor="middle">
         Object
      </text>
   </g>
   <g transform="translate(127.559,155.906)" font-size="10px" font-family="Meiryo, sans-serif">
      <text x="42.52px" y="8.96px" text-anchor="middle">
         Vertex
      </text>
      <text x="42.52px" y="20.96px" text-anchor="middle">
         Attribute
      </text>
   </g>
   <g transform="translate(34.016,178.583)" font-size="10px" font-family="Meiryo, sans-serif">
      <text x="36.85px" y="9.6px" text-anchor="middle">
         Data
      </text>
   </g>
</svg>