<?xml version="1.0" standalone="no"?>
<!DOCTYPE svg PUBLIC "-//W3C//DTD SVG 20010904//EN"
   "http://www.w3.org/TR/2001/REC-SVG-20010904/DTD/svg10.dtd">

<svg xmlns="http://www.w3.org/2000/svg" xmlns:xlink="http://www.w3.org/1999/xlink" width="496px" height="283px">
   <g id="cvpage2_top" width="496px" height="283px" transform="translate(0,0)">
      <rect x="14.673px" y="14.673px" width="467.716px" height="255.118px" fill="#EBEBEB" fill-rule="nonzero" stroke="#000" stroke-linecap="round" stroke-linejoin="round" />
      <rect x="373.088px" y="28.346px" width="93.543px" height="226.772px" fill="#FFF" fill-rule="nonzero" stroke="#919191" />
      <rect x="188.588px" y="28.346px" width="117px" height="226.772px" fill="#FFF" fill-rule="nonzero" stroke="#919191" />
      <rect x="28.346px" y="28.346px" width="93.543px" height="226.772px" fill="#FFF" fill-rule="nonzero" stroke="#919191" />
      <path d="M 353.656 81.392 C 361.565 112.146 361.565 162.007 353.656 192.761 C 345.748 223.515 332.927 223.515 325.019 192.761 C 317.111 162.007 317.111 112.146 325.019 81.392 C 332.927 50.638 345.748 50.638 353.656 81.392 " fill="#E4DAC1" fill-rule="nonzero" stroke="none" />
      <path d="M 353.656 81.392 C 361.565 112.146 361.565 162.007 353.656 192.761 C 345.748 223.515 332.927 223.515 325.019 192.761 C 317.111 162.007 317.111 112.146 325.019 81.392 C 332.927 50.638 345.748 50.638 353.656 81.392 Z" fill="none" stroke="#000" stroke-linecap="round" stroke-linejoin="round" />
      <path d="M 169.156 81.392 C 177.065 112.146 177.065 162.007 169.156 192.761 C 161.248 223.515 148.427 223.515 140.519 192.761 C 132.611 162.007 132.611 112.146 140.519 81.392 C 148.427 50.638 161.248 50.638 169.156 81.392 " fill="#C2E4E5" fill-rule="nonzero" stroke="none" />
      <path d="M 169.156 81.392 C 177.065 112.146 177.065 162.007 169.156 192.761 C 161.248 223.515 148.427 223.515 140.519 192.761 C 132.611 162.007 132.611 112.146 140.519 81.392 C 148.427 50.638 161.248 50.638 169.156 81.392 Z" fill="none" stroke="#000" stroke-linecap="round" stroke-linejoin="round" />
      <polygon points="76.9,107.823 39.934,179.705 111.813,161.735 76.9,107.823 " fill="#B8CCB8" fill-rule="nonzero" stroke="none" />
      <polygon points="76.9,107.823 39.934,179.705 111.813,161.735 76.9,107.823 " fill="none" stroke="#000" stroke-linecap="round" stroke-linejoin="round" />
      <path d="M 78.534 106.234 C 79.436 107.112 79.436 108.534 78.534 109.411 C 77.632 110.289 76.169 110.289 75.267 109.411 C 74.364 108.534 74.364 107.112 75.267 106.234 C 76.169 105.357 77.632 105.357 78.534 106.234 " fill="#FFF" fill-rule="nonzero" stroke="none" />
      <path d="M 78.534 106.234 C 79.436 107.112 79.436 108.534 78.534 109.411 C 77.632 110.289 76.169 110.289 75.267 109.411 C 74.364 108.534 74.364 107.112 75.267 106.234 C 76.169 105.357 77.632 105.357 78.534 106.234 Z" fill="none" stroke="#000" stroke-linecap="round" stroke-linejoin="round" />
      <path d="M 113.447 160.146 C 114.349 161.024 114.349 162.446 113.447 163.323 C 112.545 164.2 111.082 164.2 110.179 163.323 C 109.277 162.446 109.277 161.024 110.179 160.146 C 111.082 159.269 112.545 159.269 113.447 160.146 " fill="#FFF" fill-rule="nonzero" stroke="none" />
      <path d="M 113.447 160.146 C 114.349 161.024 114.349 162.446 113.447 163.323 C 112.545 164.2 111.082 164.2 110.179 163.323 C 109.277 162.446 109.277 161.024 110.179 160.146 C 111.082 159.269 112.545 159.269 113.447 160.146 Z" fill="none" stroke="#000" stroke-linecap="round" stroke-linejoin="round" />
      <path d="M 41.568 178.242 C 42.47 179.119 42.47 180.541 41.568 181.419 C 40.665 182.296 39.202 182.296 38.3 181.419 C 37.398 180.541 37.398 179.119 38.3 178.242 C 39.202 177.365 40.665 177.365 41.568 178.242 " fill="#FFF" fill-rule="nonzero" stroke="none" />
      <path d="M 41.568 178.242 C 42.47 179.119 42.47 180.541 41.568 181.419 C 40.665 182.296 39.202 182.296 38.3 181.419 C 37.398 180.541 37.398 179.119 38.3 178.242 C 39.202 177.365 40.665 177.365 41.568 178.242 Z" fill="none" stroke="#000" stroke-linecap="round" stroke-linejoin="round" />
      <polygon points="301.088,40.327 193.088,107.827 193.088,247.327 301.088,179.827 301.088,40.327 " fill="#FEFEE5" fill-rule="nonzero" stroke="none" />
      <polygon points="301.088,40.327 193.088,107.827 193.088,247.327 301.088,179.827 301.088,40.327 " fill="none" stroke="#000" stroke-linecap="round" stroke-linejoin="round" />
      <polygon points="249.088,98.827 213.088,197.827 285.088,170.827 249.088,98.827 " fill="#B8CCB8" fill-rule="nonzero" stroke="none" />
      <polygon points="249.088,98.827 213.088,197.827 285.088,170.827 249.088,98.827 " fill="none" stroke="#000" stroke-linecap="round" stroke-linejoin="round" />
      <path d="M 250.679 97.236 C 251.557 98.114 251.557 99.539 250.679 100.418 C 249.8 101.296 248.375 101.296 247.497 100.418 C 246.618 99.539 246.618 98.114 247.497 97.236 C 248.375 96.357 249.8 96.357 250.679 97.236 " fill="#FFF" fill-rule="nonzero" stroke="none" />
      <path d="M 250.679 97.236 C 251.557 98.114 251.557 99.539 250.679 100.418 C 249.8 101.296 248.375 101.296 247.497 100.418 C 246.618 99.539 246.618 98.114 247.497 97.236 C 248.375 96.357 249.8 96.357 250.679 97.236 Z" fill="none" stroke="#000" stroke-linecap="round" stroke-linejoin="round" />
      <path d="M 214.679 196.236 C 215.557 197.114 215.557 198.539 214.679 199.417 C 213.8 200.296 212.375 200.296 211.497 199.417 C 210.618 198.539 210.618 197.114 211.497 196.236 C 212.375 195.357 213.8 195.357 214.679 196.236 " fill="#FFF" fill-rule="nonzero" stroke="none" />
      <path d="M 214.679 196.236 C 215.557 197.114 215.557 198.539 214.679 199.418 C 213.8 200.296 212.375 200.296 211.497 199.418 C 210.618 198.539 210.618 197.114 211.497 196.236 C 212.375 195.357 213.8 195.357 214.679 196.236 Z" fill="none" stroke="#000" stroke-linecap="round" stroke-linejoin="round" />
      <path d="M 286.679 169.236 C 287.557 170.114 287.557 171.539 286.679 172.417 C 285.8 173.296 284.375 173.296 283.497 172.417 C 282.618 171.539 282.618 170.114 283.497 169.236 C 284.375 168.357 285.8 168.357 286.679 169.236 " fill="#FFF" fill-rule="nonzero" stroke="none" />
      <path d="M 286.679 169.236 C 287.557 170.114 287.557 171.539 286.679 172.418 C 285.8 173.296 284.375 173.296 283.497 172.418 C 282.618 171.539 282.618 170.114 283.497 169.236 C 284.375 168.357 285.8 168.357 286.679 169.236 Z" fill="none" stroke="#000" stroke-linecap="round" stroke-linejoin="round" />
      <path d="M 250.679 145.298 C 251.557 146.177 251.557 147.601 250.679 148.48 C 249.8 149.359 248.375 149.359 247.497 148.48 C 246.618 147.601 246.618 146.177 247.497 145.298 C 248.375 144.419 249.8 144.419 250.679 145.298 " fill="#FFF" fill-rule="nonzero" stroke="none" />
      <path d="M 250.679 145.298 C 251.557 146.177 251.557 147.601 250.679 148.48 C 249.8 149.359 248.375 149.359 247.497 148.48 C 246.618 147.601 246.618 146.177 247.497 145.298 C 248.375 144.419 249.8 144.419 250.679 145.298 Z" fill="none" stroke="#000" stroke-linecap="round" stroke-linejoin="round" />
      <polygon points="455.016,71.827 383.016,119.827 383.016,215.827 455.016,167.827 455.016,71.827 " fill="#FEFEE5" fill-rule="nonzero" stroke="none" />
      <polygon points="455.016,71.827 383.016,119.827 383.016,215.827 455.016,167.827 455.016,71.827 " fill="none" stroke="#000" stroke-linecap="round" stroke-linejoin="round" />
      <polygon points="421.016,113.827 397.016,179.827 445.016,161.827 421.016,113.827 " fill="#B8CCB8" fill-rule="nonzero" stroke="none" />
      <polygon points="421.016,113.827 397.016,179.827 445.016,161.827 421.016,113.827 " fill="none" stroke="#000" stroke-linecap="round" stroke-linejoin="round" />
      <path d="M 422.607 144.184 C 423.485 145.063 423.485 146.488 422.607 147.366 C 421.728 148.245 420.303 148.245 419.425 147.366 C 418.546 146.488 418.546 145.063 419.425 144.184 C 420.303 143.306 421.728 143.306 422.607 144.184 " fill="#FFF" fill-rule="nonzero" stroke="none" />
      <path d="M 422.607 144.184 C 423.485 145.063 423.485 146.488 422.607 147.366 C 421.728 148.245 420.303 148.245 419.425 147.366 C 418.546 146.488 418.546 145.063 419.425 144.184 C 420.303 143.306 421.728 143.306 422.607 144.184 Z" fill="none" stroke="#000" stroke-linecap="round" stroke-linejoin="round" />
      <line x1="285.088px" y1="170.952px" x2="256.944px" y2="152.141px" fill="none" stroke="#2E4C2E" stroke-linecap="round" stroke-linejoin="round" />
      <polygon points="252.954,149.473 255.944,153.637 257.945,150.644 252.954,149.473 " fill="none" stroke="#2E4C2E" />
      <line x1="249.088px" y1="137.439px" x2="249.088px" y2="98.827px" fill="none" stroke="#2E4C2E" stroke-linecap="round" stroke-linejoin="round" />
      <polygon points="249.088,142.239 250.888,137.439 247.288,137.439 249.088,142.239 " fill="none" stroke="#2E4C2E" />
      <line x1="213.088px" y1="197.827px" x2="243.633px" y2="154.607px" fill="none" stroke="#2E4C2E" stroke-linecap="round" stroke-linejoin="round" />
      <polygon points="246.404,150.687 242.163,153.568 245.103,155.645 246.404,150.687 " fill="none" stroke="#2E4C2E" />
      <line x1="39.874px" y1="179.827px" x2="193.085px" y2="195.748px" fill="none" stroke="#000" stroke-linecap="round" stroke-linejoin="round" />
      <path d="M 193.088 195.748 L 195.077 195.955 M 197.067 196.161 L 199.056 196.368 M 201.045 196.575 L 203.034 196.782 M 205.024 196.988 L 207.013 197.195 " fill="none" stroke="#000" />
      <polygon points="213.088,197.827 207.308,199.546 207.785,194.955 213.088,197.827 " fill="#000" fill-rule="nonzero" stroke="#000" stroke-width="0.1px" />
      <line x1="111.874px" y1="161.827px" x2="193.053px" y2="166.044px" fill="none" stroke="#000" stroke-linecap="round" stroke-linejoin="round" />
      <path d="M 193.053 166.044 L 195.051 166.148 M 197.048 166.252 L 199.045 166.356 M 201.042 166.459 L 203.04 166.563 M 205.037 166.667 L 207.035 166.771 M 209.032 166.875 L 211.029 166.978 M 213.026 167.082 L 215.024 167.186 M 217.021 167.29 L 219.018 167.393 M 221.016 167.497 L 223.013 167.601 M 225.01 167.705 L 227.007 167.808 M 229.005 167.912 L 231.002 168.016 M 232.999 168.12 L 234.997 168.224 M 236.994 168.327 L 238.991 168.431 M 240.989 168.535 L 242.986 168.639 M 244.983 168.742 L 246.981 168.846 M 248.978 168.95 L 250.975 169.054 M 252.972 169.157 L 254.97 169.261 M 256.967 169.365 L 258.964 169.469 M 260.962 169.573 L 262.959 169.676 M 264.956 169.78 L 266.954 169.884 M 268.951 169.988 L 270.948 170.091 M 272.946 170.195 L 274.943 170.299 M 276.94 170.403 L 278.938 170.506 " fill="none" stroke="#000" stroke-linejoin="round" />
      <polygon points="285.088,170.826 279.644,168.232 279.404,172.842 285.088,170.826 " fill="#000" fill-rule="nonzero" stroke="#000" stroke-width="0.1px" />
      <line x1="76.874px" y1="107.827px" x2="203.829px" y2="101.192px" fill="none" stroke="#000" stroke-linecap="round" stroke-linejoin="round" />
      <path d="M 203.829 101.192 L 205.826 101.088 M 207.823 100.983 L 209.821 100.879 M 211.818 100.774 L 213.815 100.67 M 215.812 100.566 L 217.81 100.461 M 219.807 100.357 L 221.804 100.252 M 223.802 100.148 L 225.799 100.044 M 227.796 99.939 L 229.793 99.835 M 231.791 99.731 L 233.788 99.626 M 235.785 99.522 L 237.782 99.417 M 239.78 99.313 L 241.777 99.209 " fill="none" stroke="#000" stroke-linejoin="round" />
      <polygon points="249.088,98.827 243.404,96.813 243.645,101.422 249.088,98.827 " fill="#000" fill-rule="nonzero" stroke="#000" stroke-width="0.1px" />
      <line x1="249.213px" y1="146.952px" x2="382.901px" y2="146.036px" fill="none" stroke="#000" stroke-linecap="round" stroke-linejoin="round" />
      <path d="M 382.901 146.036 L 384.901 146.022 M 386.901 146.009 L 388.901 145.995 M 390.901 145.981 L 392.901 145.968 M 394.901 145.954 L 396.9 145.94 M 398.9 145.926 L 400.9 145.913 M 402.9 145.899 L 404.9 145.885 M 406.9 145.872 L 408.9 145.858 M 410.9 145.844 L 412.9 145.831 M 414.9 145.817 L 415.445 145.813 L 415.445 145.813 " fill="none" stroke="#000" stroke-linejoin="round" />
      <polygon points="421.016,145.775 415.429,143.505 415.461,148.121 421.016,145.775 " fill="#000" fill-rule="nonzero" stroke="#000" stroke-width="0.1px" />
      <line x1="418.409px" y1="140.851px" x2="411.339px" y2="127.502px" fill="none" stroke="#007100" />
      <polygon points="421.016,145.775 420.448,139.771 416.369,141.931 421.016,145.775 " fill="#007100" fill-rule="nonzero" stroke="#007100" stroke-width="0.1px" />
      <line x1="72.17px" y1="110.767px" x2="60.339px" y2="118.133px" fill="none" stroke="#007100" />
      <polygon points="76.9,107.823 70.951,108.808 73.39,112.726 76.9,107.823 " fill="#007100" fill-rule="nonzero" stroke="#007100" stroke-width="0.1px" />
      <g transform="translate(58.711,147.72)" font-size="10px" font-family="Meiryo, sans-serif">
         <text x="20.5px" y="9.6px" text-anchor="middle">
            基本図形
         </text>
      </g>
      <g transform="translate(188.588,32.827)" font-size="10px" font-family="Meiryo, sans-serif">
         <text x="58.5px" y="9.6px" text-anchor="middle">
            ラスタ化処理
         </text>
      </g>
      <g transform="translate(373.088,32.827)" font-size="10px" font-family="Meiryo, sans-serif">
         <text x="46.772px" y="9.6px" text-anchor="middle">
            画像データ
         </text>
      </g>
      <g transform="translate(28.346,32.677)" font-size="10px" font-family="Meiryo, sans-serif">
         <text x="46.772px" y="9.6px" text-anchor="middle">
            図形データ
         </text>
      </g>
      <g transform="translate(305.588,32.827)" font-size="10px" font-family="Meiryo, sans-serif">
         <text x="33.75px" y="9.6px" text-anchor="middle">
            画素処理
         </text>
      </g>
      <g transform="translate(242.454,155.22)" font-size="10px" font-family="Meiryo, sans-serif">
         <text x="10.5px" y="9.6px" text-anchor="middle">
            補間
         </text>
      </g>
      <g transform="translate(234.348,83.278)" font-size="10px" font-family="Consolas, sans-serif">
         <text x="30.75px" y="10.2px" text-anchor="middle">
            gl_Position
         </text>
      </g>
      <g transform="translate(405.18,149.37)" font-size="10px" font-family="Consolas, sans-serif">
         <text x="17.454px" y="10.2px" text-anchor="middle">
            color
         </text>
      </g>
      <g transform="translate(121.89,32.827)" font-size="10px" font-family="Meiryo, sans-serif">
         <text x="33.349px" y="9.6px" text-anchor="middle">
            頂点処理
         </text>
      </g>
      <g transform="translate(42.041,237.977)" font-size="10px" font-family="Meiryo, sans-serif">
         <text x="30.5px" y="9.6px" text-anchor="middle">
            頂点バッファ
         </text>
      </g>
      <g transform="translate(125.063,230.477)" font-size="10px" font-family="Meiryo, sans-serif">
         <text x="30.5px" y="9.6px" text-anchor="middle">
            バーテックス
         </text>
      </g>
      <g transform="translate(134.838,243.977)" font-size="10px" font-family="Meiryo, sans-serif">
         <text x="20.5px" y="9.6px" text-anchor="middle">
            シェーダ
         </text>
      </g>
      <g transform="translate(217.313,237.977)" font-size="10px" font-family="Meiryo, sans-serif">
         <text x="30.5px" y="9.6px" text-anchor="middle">
            ラスタライザ
         </text>
      </g>
      <g transform="translate(309.653,230.477)" font-size="10px" font-family="Meiryo, sans-serif">
         <text x="30.5px" y="9.6px" text-anchor="middle">
            フラグメント
         </text>
      </g>
      <g transform="translate(319.338,243.977)" font-size="10px" font-family="Meiryo, sans-serif">
         <text x="20.5px" y="9.6px" text-anchor="middle">
            シェーダ
         </text>
      </g>
      <g transform="translate(373.088,237.977)" font-size="10px" font-family="Meiryo, sans-serif">
         <text x="46.772px" y="9.6px" text-anchor="middle">
            フレームバッファ
         </text>
      </g>
      <g transform="translate(54.4,93.876)" font-size="10px" font-family="Consolas, sans-serif">
         <text x="22.5px" y="10.2px" text-anchor="middle">
            position
         </text>
      </g>
      <g transform="translate(391.459,115.627)" font-size="10px" font-family="Meiryo, sans-serif">
         <text x="0px" y="9.6px">
            画素
         </text>
      </g>
      <g transform="translate(39.934,111.258)" font-size="10px" font-family="Meiryo, sans-serif">
         <text x="0px" y="9.6px">
            頂点
         </text>
      </g>
   </g>
</svg>