<?xml version="1.0" standalone="no"?>
<!DOCTYPE svg PUBLIC "-//W3C//DTD SVG 20010904//EN"
   "http://www.w3.org/TR/2001/REC-SVG-20010904/DTD/svg10.dtd">

<svg xmlns="http://www.w3.org/2000/svg" xmlns:xlink="http://www.w3.org/1999/xlink" width="227px" height="227px">
   <g id="cvpage1_top" width="227px" height="227px" transform="translate(0,0)">
      <rect x="14.173px" y="14.173px" width="198.425px" height="198.425px" fill="#EBEBEB" fill-rule="nonzero" stroke="#000" />
      <rect x="42.52px" y="42.52px" width="141.732px" height="141.732px" fill="#FFF" fill-rule="evenodd" stroke="none" />
      <rect x="42.52px" y="42.52px" width="141.732px" height="141.732px" fill="none" stroke="#000" />
      <line x1="113.386px" y1="212.599px" x2="113.386px" y2="19.745px" fill="none" stroke="#000" />
      <polygon points="113.386,14.173 115.694,19.745 111.078,19.745 113.386,14.173 " fill="#000" fill-rule="nonzero" stroke="#000" stroke-width="0.1px" />
      <line x1="14.173px" y1="113.386px" x2="207.027px" y2="113.386px" fill="none" stroke="#000" />
      <polygon points="212.599,113.386 207.027,115.694 207.027,111.078 212.599,113.386 " fill="#000" fill-rule="nonzero" stroke="#000" stroke-width="0.1px" />
      <path d="M 150.236 148.819 C 150.236 149.601 149.601 150.236 148.819 150.236 C 148.037 150.236 147.402 149.601 147.402 148.819 C 147.402 148.037 148.037 147.402 148.819 147.402 C 149.601 147.402 150.236 148.037 150.236 148.819 " fill="#E30000" fill-rule="evenodd" stroke="none" />
      <path d="M 79.37 148.819 C 79.37 149.601 78.735 150.236 77.953 150.236 C 77.171 150.236 76.535 149.601 76.535 148.819 C 76.535 148.037 77.171 147.402 77.953 147.402 C 78.735 147.402 79.37 148.037 79.37 148.819 " fill="#E30000" fill-rule="evenodd" stroke="none" />
      <path d="M 150.236 77.953 C 150.236 78.735 149.601 79.37 148.819 79.37 C 148.037 79.37 147.402 78.735 147.402 77.953 C 147.402 77.171 148.037 76.535 148.819 76.535 C 149.601 76.535 150.236 77.171 150.236 77.953 " fill="#E30000" fill-rule="evenodd" stroke="none" />
      <path d="M 79.37 77.953 C 79.37 78.735 78.735 79.37 77.953 79.37 C 77.171 79.37 76.535 78.735 76.535 77.953 C 76.535 77.171 77.171 76.535 77.953 76.535 C 78.735 76.535 79.37 77.171 79.37 77.953 " fill="#E30000" fill-rule="evenodd" stroke="none" />
      <g transform="translate(99.213,28.346)" font-size="10px" font-family="Symbol, fantasy">
         <text x="11.339px" y="10px" text-anchor="end">
            1
         </text>
      </g>
      <g transform="translate(184.252,113.386)" font-size="10px" font-family="Symbol, fantasy">
         <text x="5.669px" y="12px" text-anchor="middle" baseline-shift="sub">
            1
         </text>
      </g>
      <g transform="translate(28.346,113.386)" font-size="10px" font-family="Symbol, fantasy">
         <text x="11.339px" y="12px" text-anchor="end" baseline-shift="sub">
            -1
         </text>
      </g>
      <g transform="translate(99.213,184.252)" font-size="10px" font-family="Symbol, fantasy">
         <text x="11.339px" y="12px" text-anchor="end" baseline-shift="sub">
            -1
         </text>
      </g>
      <g transform="translate(102.047,113.386)" font-size="10px" font-family="'Times New Roman', serif">
         <text x="0px" y="11px" baseline-shift="sub">
            O
         </text>
      </g>
      <g transform="translate(198.733,99.213)" font-size="10px" font-family="'Times New Roman', serif">
         <text x="7.087px" y="9px" text-anchor="middle" font-style="oblique">
            x
         </text>
      </g>
      <g transform="translate(99.213,14.173)" font-size="10px" font-family="'Times New Roman', serif">
         <text x="7.087px" y="9px" text-anchor="middle" font-style="oblique">
            y
         </text>
      </g>
      <g transform="translate(129.919,61.931)" font-size="10px" font-family="Symbol, fantasy">
         <text x="18.9px" y="10px" text-anchor="middle">
            (0.5, 0.5)
         </text>
      </g>
      <g transform="translate(127.169,150.254)" font-size="10px" font-family="Symbol, fantasy">
         <text x="21.65px" y="10px" text-anchor="middle">
            (0.5, -0.5)
         </text>
      </g>
      <g transform="translate(56.303,61.931)" font-size="10px" font-family="Symbol, fantasy">
         <text x="21.65px" y="10px" text-anchor="middle">
            (-0.5, 0.5)
         </text>
      </g>
      <g transform="translate(53.553,150.254)" font-size="10px" font-family="Symbol, fantasy">
         <text x="24.4px" y="10px" text-anchor="middle">
            (-0.5, -0.5)
         </text>
      </g>
   </g>
</svg>