<?xml version="1.0" standalone="no"?>
<!DOCTYPE svg PUBLIC "-//W3C//DTD SVG 20010904//EN"
   "http://www.w3.org/TR/2001/REC-SVG-20010904/DTD/svg10.dtd">

<svg xmlns="http://www.w3.org/2000/svg" xmlns:xlink="http://www.w3.org/1999/xlink" width="482px" height="227px">
   <g id="cvpage2_top" width="482px" height="227px" transform="translate(0,0)">
      <rect x="14.173px" y="14.173px" width="453.543px" height="198.425px" fill="#EBEBEB" fill-rule="nonzero" stroke="#000" />
      <polygon points="200.07,178.916 218.07,133.916 254.07,124.916 290.07,133.916 272.07,160.916 200.07,178.916 200.07,178.916 " fill="#AAA" fill-rule="nonzero" stroke="none" />
      <polygon points="200.07,178.916 218.07,133.916 254.07,124.916 290.07,133.916 272.07,160.916 200.07,178.916 200.07,178.916 " fill="none" stroke="#000" />
      <line x1="218.07px" y1="133.916px" x2="236.07px" y2="169.916px" fill="none" stroke="#000" />
      <line x1="254.07px" y1="124.916px" x2="236.07px" y2="169.916px" fill="none" stroke="#000" />
      <line x1="254.07px" y1="124.916px" x2="272.07px" y2="160.916px" fill="none" stroke="#000" />
      <path d="M 202.32 178.916 C 202.32 180.15 201.304 181.166 200.07 181.166 C 198.835 181.166 197.82 180.15 197.82 178.916 C 197.82 177.681 198.835 176.666 200.07 176.666 C 201.304 176.666 202.32 177.681 202.32 178.916 " fill="#FFF" fill-rule="evenodd" stroke="none" />
      <path d="M 202.32 178.916 C 202.32 180.15 201.304 181.166 200.07 181.166 C 198.835 181.166 197.82 180.15 197.82 178.916 C 197.82 177.681 198.835 176.666 200.07 176.666 C 201.304 176.666 202.32 177.681 202.32 178.916 Z" fill="none" stroke="#000" />
      <circle cx="218.07px" cy="133.916px" r="2.25px" fill="#FFF" fill-rule="evenodd" stroke="none" />
      <circle cx="218.07px" cy="133.916px" r="2.25px" fill="none" stroke="#000" />
      <path d="M 238.32 169.916 C 238.32 171.15 237.304 172.166 236.07 172.166 C 234.835 172.166 233.82 171.15 233.82 169.916 C 233.82 168.681 234.835 167.666 236.07 167.666 C 237.304 167.666 238.32 168.681 238.32 169.916 " fill="#FFF" fill-rule="evenodd" stroke="none" />
      <path d="M 238.32 169.916 C 238.32 171.15 237.304 172.166 236.07 172.166 C 234.835 172.166 233.82 171.15 233.82 169.916 C 233.82 168.681 234.835 167.666 236.07 167.666 C 237.304 167.666 238.32 168.681 238.32 169.916 Z" fill="none" stroke="#000" />
      <circle cx="254.07px" cy="124.916px" r="2.25px" fill="#FFF" fill-rule="evenodd" stroke="none" />
      <circle cx="254.07px" cy="124.916px" r="2.25px" fill="none" stroke="#000" />
      <path d="M 274.32 160.916 C 274.32 162.15 273.304 163.166 272.07 163.166 C 270.835 163.166 269.82 162.15 269.82 160.916 C 269.82 159.681 270.835 158.666 272.07 158.666 C 273.304 158.666 274.32 159.681 274.32 160.916 " fill="#FFF" fill-rule="evenodd" stroke="none" />
      <path d="M 274.32 160.916 C 274.32 162.15 273.304 163.166 272.07 163.166 C 270.835 163.166 269.82 162.15 269.82 160.916 C 269.82 159.681 270.835 158.666 272.07 158.666 C 273.304 158.666 274.32 159.681 274.32 160.916 Z" fill="none" stroke="#000" />
      <circle cx="290.07px" cy="133.916px" r="2.25px" fill="#FFF" fill-rule="evenodd" stroke="none" />
      <circle cx="290.07px" cy="133.916px" r="2.25px" fill="none" stroke="#000" />
      <polygon points="344.07,178.916 317.07,154.166 339.57,133.916 366.57,124.916 393.57,136.166 407.07,160.916 344.07,178.916 344.07,178.916 " fill="#AAA" fill-rule="nonzero" stroke="none" />
      <polygon points="344.07,178.916 317.07,154.166 339.57,133.916 366.57,124.916 393.57,136.166 407.07,160.916 344.07,178.916 344.07,178.916 " fill="none" stroke="#000" />
      <line x1="344.07px" y1="178.916px" x2="339.57px" y2="133.916px" fill="none" stroke="#000" />
      <line x1="344.07px" y1="178.916px" x2="366.57px" y2="124.916px" fill="none" stroke="#000" />
      <line x1="344.07px" y1="178.916px" x2="393.57px" y2="136.166px" fill="none" stroke="#000" />
      <path d="M 346.32 178.916 C 346.32 180.15 345.304 181.166 344.07 181.166 C 342.836 181.166 341.82 180.15 341.82 178.916 C 341.82 177.681 342.836 176.666 344.07 176.666 C 345.304 176.666 346.32 177.681 346.32 178.916 " fill="#FFF" fill-rule="evenodd" stroke="none" />
      <path d="M 346.32 178.916 C 346.32 180.15 345.304 181.166 344.07 181.166 C 342.836 181.166 341.82 180.15 341.82 178.916 C 341.82 177.681 342.836 176.666 344.07 176.666 C 345.304 176.666 346.32 177.681 346.32 178.916 Z" fill="none" stroke="#000" />
      <path d="M 319.32 154.166 C 319.32 155.4 318.304 156.416 317.07 156.416 C 315.836 156.416 314.82 155.4 314.82 154.166 C 314.82 152.931 315.836 151.916 317.07 151.916 C 318.304 151.916 319.32 152.931 319.32 154.166 " fill="#FFF" fill-rule="evenodd" stroke="none" />
      <path d="M 319.32 154.166 C 319.32 155.4 318.304 156.416 317.07 156.416 C 315.836 156.416 314.82 155.4 314.82 154.166 C 314.82 152.931 315.836 151.916 317.07 151.916 C 318.304 151.916 319.32 152.931 319.32 154.166 Z" fill="none" stroke="#000" />
      <circle cx="339.57px" cy="133.916px" r="2.25px" fill="#FFF" fill-rule="evenodd" stroke="none" />
      <circle cx="339.57px" cy="133.916px" r="2.25px" fill="none" stroke="#000" />
      <circle cx="366.57px" cy="124.916px" r="2.25px" fill="#FFF" fill-rule="evenodd" stroke="none" />
      <circle cx="366.57px" cy="124.916px" r="2.25px" fill="none" stroke="#000" />
      <circle cx="393.57px" cy="136.166px" r="2.25px" fill="#FFF" fill-rule="evenodd" stroke="none" />
      <circle cx="393.57px" cy="136.166px" r="2.25px" fill="none" stroke="#000" />
      <path d="M 409.32 160.916 C 409.32 162.15 408.304 163.166 407.07 163.166 C 405.836 163.166 404.82 162.15 404.82 160.916 C 404.82 159.681 405.836 158.666 407.07 158.666 C 408.304 158.666 409.32 159.681 409.32 160.916 " fill="#FFF" fill-rule="evenodd" stroke="none" />
      <path d="M 409.32 160.916 C 409.32 162.15 408.304 163.166 407.07 163.166 C 405.836 163.166 404.82 162.15 404.82 160.916 C 404.82 159.681 405.836 158.666 407.07 158.666 C 408.304 158.666 409.32 159.681 409.32 160.916 Z" fill="none" stroke="#000" />
      <polygon points="137.07,124.916 155.07,160.916 173.07,133.916 137.07,124.916 137.07,124.916 " fill="#AAA" fill-rule="nonzero" stroke="none" />
      <polygon points="137.07,124.916 155.07,160.916 173.07,133.916 137.07,124.916 137.07,124.916 " fill="none" stroke="#000" />
      <polygon points="101.07,133.916 83.07,178.916 119.07,169.916 101.07,133.916 101.07,133.916 " fill="#AAA" fill-rule="nonzero" stroke="none" />
      <polygon points="101.07,133.916 83.07,178.916 119.07,169.916 101.07,133.916 101.07,133.916 " fill="none" stroke="#000" />
      <path d="M 85.32 178.916 C 85.32 180.15 84.304 181.166 83.07 181.166 C 81.835 181.166 80.82 180.15 80.82 178.916 C 80.82 177.681 81.835 176.666 83.07 176.666 C 84.304 176.666 85.32 177.681 85.32 178.916 " fill="#FFF" fill-rule="evenodd" stroke="none" />
      <path d="M 85.32 178.916 C 85.32 180.15 84.304 181.166 83.07 181.166 C 81.835 181.166 80.82 180.15 80.82 178.916 C 80.82 177.681 81.835 176.666 83.07 176.666 C 84.304 176.666 85.32 177.681 85.32 178.916 Z" fill="none" stroke="#000" />
      <path d="M 103.32 133.916 C 103.32 135.15 102.304 136.166 101.07 136.166 C 99.835 136.166 98.82 135.15 98.82 133.916 C 98.82 132.681 99.835 131.666 101.07 131.666 C 102.304 131.666 103.32 132.681 103.32 133.916 " fill="#FFF" fill-rule="evenodd" stroke="none" />
      <path d="M 103.32 133.916 C 103.32 135.15 102.304 136.166 101.07 136.166 C 99.835 136.166 98.82 135.15 98.82 133.916 C 98.82 132.681 99.835 131.666 101.07 131.666 C 102.304 131.666 103.32 132.681 103.32 133.916 Z" fill="none" stroke="#000" />
      <path d="M 121.32 169.916 C 121.32 171.15 120.304 172.166 119.07 172.166 C 117.835 172.166 116.82 171.15 116.82 169.916 C 116.82 168.681 117.835 167.666 119.07 167.666 C 120.304 167.666 121.32 168.681 121.32 169.916 " fill="#FFF" fill-rule="evenodd" stroke="none" />
      <path d="M 121.32 169.916 C 121.32 171.15 120.304 172.166 119.07 172.166 C 117.835 172.166 116.82 171.15 116.82 169.916 C 116.82 168.681 117.835 167.666 119.07 167.666 C 120.304 167.666 121.32 168.681 121.32 169.916 Z" fill="none" stroke="#000" />
      <path d="M 139.32 124.916 C 139.32 126.15 138.304 127.166 137.07 127.166 C 135.835 127.166 134.82 126.15 134.82 124.916 C 134.82 123.681 135.835 122.666 137.07 122.666 C 138.304 122.666 139.32 123.681 139.32 124.916 " fill="#FFF" fill-rule="evenodd" stroke="none" />
      <path d="M 139.32 124.916 C 139.32 126.15 138.304 127.166 137.07 127.166 C 135.835 127.166 134.82 126.15 134.82 124.916 C 134.82 123.681 135.835 122.666 137.07 122.666 C 138.304 122.666 139.32 123.681 139.32 124.916 Z" fill="none" stroke="#000" />
      <path d="M 157.32 160.916 C 157.32 162.15 156.304 163.166 155.07 163.166 C 153.835 163.166 152.82 162.15 152.82 160.916 C 152.82 159.681 153.835 158.666 155.07 158.666 C 156.304 158.666 157.32 159.681 157.32 160.916 " fill="#FFF" fill-rule="evenodd" stroke="none" />
      <path d="M 157.32 160.916 C 157.32 162.15 156.304 163.166 155.07 163.166 C 153.835 163.166 152.82 162.15 152.82 160.916 C 152.82 159.681 153.835 158.666 155.07 158.666 C 156.304 158.666 157.32 159.681 157.32 160.916 Z" fill="none" stroke="#000" />
      <circle cx="173.07px" cy="133.916px" r="2.25px" fill="#FFF" fill-rule="evenodd" stroke="none" />
      <circle cx="173.07px" cy="133.916px" r="2.25px" fill="none" stroke="#000" />
      <line x1="140.32px" y1="85.416px" x2="158.32px" y2="40.416px" fill="none" stroke="#000" />
      <line x1="176.32px" y1="76.416px" x2="194.32px" y2="31.416px" fill="none" stroke="#000" />
      <line x1="212.32px" y1="67.416px" x2="230.32px" y2="40.416px" fill="none" stroke="#000" />
      <path d="M 142.57 85.416 C 142.57 86.65 141.554 87.666 140.32 87.666 C 139.085 87.666 138.07 86.65 138.07 85.416 C 138.07 84.181 139.085 83.166 140.32 83.166 C 141.554 83.166 142.57 84.181 142.57 85.416 " fill="#FFF" fill-rule="evenodd" stroke="none" />
      <path d="M 142.57 85.416 C 142.57 86.65 141.554 87.666 140.32 87.666 C 139.085 87.666 138.07 86.65 138.07 85.416 C 138.07 84.181 139.085 83.166 140.32 83.166 C 141.554 83.166 142.57 84.181 142.57 85.416 Z" fill="none" stroke="#000" />
      <path d="M 160.57 40.416 C 160.57 41.65 159.554 42.666 158.32 42.666 C 157.085 42.666 156.07 41.65 156.07 40.416 C 156.07 39.181 157.085 38.166 158.32 38.166 C 159.554 38.166 160.57 39.181 160.57 40.416 " fill="#FFF" fill-rule="evenodd" stroke="none" />
      <path d="M 160.57 40.416 C 160.57 41.65 159.554 42.666 158.32 42.666 C 157.085 42.666 156.07 41.65 156.07 40.416 C 156.07 39.181 157.085 38.166 158.32 38.166 C 159.554 38.166 160.57 39.181 160.57 40.416 Z" fill="none" stroke="#000" />
      <path d="M 178.57 76.416 C 178.57 77.65 177.554 78.666 176.32 78.666 C 175.085 78.666 174.07 77.65 174.07 76.416 C 174.07 75.181 175.085 74.166 176.32 74.166 C 177.554 74.166 178.57 75.181 178.57 76.416 " fill="#FFF" fill-rule="evenodd" stroke="none" />
      <path d="M 178.57 76.416 C 178.57 77.65 177.554 78.666 176.32 78.666 C 175.085 78.666 174.07 77.65 174.07 76.416 C 174.07 75.181 175.085 74.166 176.32 74.166 C 177.554 74.166 178.57 75.181 178.57 76.416 Z" fill="none" stroke="#000" />
      <circle cx="194.32px" cy="31.416px" r="2.25px" fill="#FFF" fill-rule="evenodd" stroke="none" />
      <circle cx="194.32px" cy="31.416px" r="2.25px" fill="none" stroke="#000" />
      <path d="M 214.57 67.416 C 214.57 68.65 213.554 69.666 212.32 69.666 C 211.085 69.666 210.07 68.65 210.07 67.416 C 210.07 66.181 211.085 65.166 212.32 65.166 C 213.554 65.166 214.57 66.181 214.57 67.416 " fill="#FFF" fill-rule="evenodd" stroke="none" />
      <path d="M 214.57 67.416 C 214.57 68.65 213.554 69.666 212.32 69.666 C 211.085 69.666 210.07 68.65 210.07 67.416 C 210.07 66.181 211.085 65.166 212.32 65.166 C 213.554 65.166 214.57 66.181 214.57 67.416 Z" fill="none" stroke="#000" />
      <path d="M 232.57 40.416 C 232.57 41.65 231.554 42.666 230.32 42.666 C 229.085 42.666 228.07 41.65 228.07 40.416 C 228.07 39.181 229.085 38.166 230.32 38.166 C 231.554 38.166 232.57 39.181 232.57 40.416 " fill="#FFF" fill-rule="evenodd" stroke="none" />
      <path d="M 232.57 40.416 C 232.57 41.65 231.554 42.666 230.32 42.666 C 229.085 42.666 228.07 41.65 228.07 40.416 C 228.07 39.181 229.085 38.166 230.32 38.166 C 231.554 38.166 232.57 39.181 232.57 40.416 Z" fill="none" stroke="#000" />
      <polyline points="251.57,85.416 269.57,40.416 287.57,76.416 305.57,31.416 323.57,67.416 341.57,40.416 " fill="none" stroke="#000" />
      <path d="M 253.82 85.416 C 253.82 86.65 252.804 87.666 251.57 87.666 C 250.335 87.666 249.32 86.65 249.32 85.416 C 249.32 84.181 250.335 83.166 251.57 83.166 C 252.804 83.166 253.82 84.181 253.82 85.416 " fill="#FFF" fill-rule="evenodd" stroke="none" />
      <path d="M 253.82 85.416 C 253.82 86.65 252.804 87.666 251.57 87.666 C 250.335 87.666 249.32 86.65 249.32 85.416 C 249.32 84.181 250.335 83.166 251.57 83.166 C 252.804 83.166 253.82 84.181 253.82 85.416 Z" fill="none" stroke="#000" />
      <path d="M 271.82 40.416 C 271.82 41.65 270.804 42.666 269.57 42.666 C 268.335 42.666 267.32 41.65 267.32 40.416 C 267.32 39.181 268.335 38.166 269.57 38.166 C 270.804 38.166 271.82 39.181 271.82 40.416 " fill="#FFF" fill-rule="evenodd" stroke="none" />
      <path d="M 271.82 40.416 C 271.82 41.65 270.804 42.666 269.57 42.666 C 268.335 42.666 267.32 41.65 267.32 40.416 C 267.32 39.181 268.335 38.166 269.57 38.166 C 270.804 38.166 271.82 39.181 271.82 40.416 Z" fill="none" stroke="#000" />
      <path d="M 289.82 76.416 C 289.82 77.65 288.804 78.666 287.57 78.666 C 286.336 78.666 285.32 77.65 285.32 76.416 C 285.32 75.181 286.336 74.166 287.57 74.166 C 288.804 74.166 289.82 75.181 289.82 76.416 " fill="#FFF" fill-rule="evenodd" stroke="none" />
      <path d="M 289.82 76.416 C 289.82 77.65 288.804 78.666 287.57 78.666 C 286.336 78.666 285.32 77.65 285.32 76.416 C 285.32 75.181 286.336 74.166 287.57 74.166 C 288.804 74.166 289.82 75.181 289.82 76.416 Z" fill="none" stroke="#000" />
      <circle cx="305.57px" cy="31.416px" r="2.25px" fill="#FFF" fill-rule="evenodd" stroke="none" />
      <circle cx="305.57px" cy="31.416px" r="2.25px" fill="none" stroke="#000" />
      <path d="M 325.82 67.416 C 325.82 68.65 324.804 69.666 323.57 69.666 C 322.336 69.666 321.32 68.65 321.32 67.416 C 321.32 66.181 322.336 65.166 323.57 65.166 C 324.804 65.166 325.82 66.181 325.82 67.416 " fill="#FFF" fill-rule="evenodd" stroke="none" />
      <path d="M 325.82 67.416 C 325.82 68.65 324.804 69.666 323.57 69.666 C 322.336 69.666 321.32 68.65 321.32 67.416 C 321.32 66.181 322.336 65.166 323.57 65.166 C 324.804 65.166 325.82 66.181 325.82 67.416 Z" fill="none" stroke="#000" />
      <path d="M 343.82 40.416 C 343.82 41.65 342.804 42.666 341.57 42.666 C 340.336 42.666 339.32 41.65 339.32 40.416 C 339.32 39.181 340.336 38.166 341.57 38.166 C 342.804 38.166 343.82 39.181 343.82 40.416 " fill="#FFF" fill-rule="evenodd" stroke="none" />
      <path d="M 343.82 40.416 C 343.82 41.65 342.804 42.666 341.57 42.666 C 340.336 42.666 339.32 41.65 339.32 40.416 C 339.32 39.181 340.336 38.166 341.57 38.166 C 342.804 38.166 343.82 39.181 343.82 40.416 Z" fill="none" stroke="#000" />
      <path d="M 31.32 85.416 C 31.32 86.65 30.304 87.666 29.07 87.666 C 27.835 87.666 26.82 86.65 26.82 85.416 C 26.82 84.181 27.835 83.166 29.07 83.166 C 30.304 83.166 31.32 84.181 31.32 85.416 " fill="#FFF" fill-rule="evenodd" stroke="none" />
      <path d="M 31.32 85.416 C 31.32 86.65 30.304 87.666 29.07 87.666 C 27.835 87.666 26.82 86.65 26.82 85.416 C 26.82 84.181 27.835 83.166 29.07 83.166 C 30.304 83.166 31.32 84.181 31.32 85.416 Z" fill="none" stroke="#000" />
      <path d="M 49.32 40.416 C 49.32 41.65 48.304 42.666 47.07 42.666 C 45.835 42.666 44.82 41.65 44.82 40.416 C 44.82 39.181 45.835 38.166 47.07 38.166 C 48.304 38.166 49.32 39.181 49.32 40.416 " fill="#FFF" fill-rule="evenodd" stroke="none" />
      <path d="M 49.32 40.416 C 49.32 41.65 48.304 42.666 47.07 42.666 C 45.835 42.666 44.82 41.65 44.82 40.416 C 44.82 39.181 45.835 38.166 47.07 38.166 C 48.304 38.166 49.32 39.181 49.32 40.416 Z" fill="none" stroke="#000" />
      <path d="M 67.32 76.416 C 67.32 77.65 66.304 78.666 65.07 78.666 C 63.835 78.666 62.82 77.65 62.82 76.416 C 62.82 75.181 63.835 74.166 65.07 74.166 C 66.304 74.166 67.32 75.181 67.32 76.416 " fill="#FFF" fill-rule="evenodd" stroke="none" />
      <path d="M 67.32 76.416 C 67.32 77.65 66.304 78.666 65.07 78.666 C 63.835 78.666 62.82 77.65 62.82 76.416 C 62.82 75.181 63.835 74.166 65.07 74.166 C 66.304 74.166 67.32 75.181 67.32 76.416 Z" fill="none" stroke="#000" />
      <path d="M 85.32 31.416 C 85.32 32.65 84.304 33.666 83.07 33.666 C 81.835 33.666 80.82 32.65 80.82 31.416 C 80.82 30.181 81.835 29.166 83.07 29.166 C 84.304 29.166 85.32 30.181 85.32 31.416 " fill="#FFF" fill-rule="evenodd" stroke="none" />
      <path d="M 85.32 31.416 C 85.32 32.65 84.304 33.666 83.07 33.666 C 81.835 33.666 80.82 32.65 80.82 31.416 C 80.82 30.181 81.835 29.166 83.07 29.166 C 84.304 29.166 85.32 30.181 85.32 31.416 Z" fill="none" stroke="#000" />
      <path d="M 103.32 67.416 C 103.32 68.65 102.304 69.666 101.07 69.666 C 99.835 69.666 98.82 68.65 98.82 67.416 C 98.82 66.181 99.835 65.166 101.07 65.166 C 102.304 65.166 103.32 66.181 103.32 67.416 " fill="#FFF" fill-rule="evenodd" stroke="none" />
      <path d="M 103.32 67.416 C 103.32 68.65 102.304 69.666 101.07 69.666 C 99.835 69.666 98.82 68.65 98.82 67.416 C 98.82 66.181 99.835 65.166 101.07 65.166 C 102.304 65.166 103.32 66.181 103.32 67.416 Z" fill="none" stroke="#000" />
      <path d="M 121.32 40.416 C 121.32 41.65 120.304 42.666 119.07 42.666 C 117.835 42.666 116.82 41.65 116.82 40.416 C 116.82 39.181 117.835 38.166 119.07 38.166 C 120.304 38.166 121.32 39.181 121.32 40.416 " fill="#FFF" fill-rule="evenodd" stroke="none" />
      <path d="M 121.32 40.416 C 121.32 41.65 120.304 42.666 119.07 42.666 C 117.835 42.666 116.82 41.65 116.82 40.416 C 116.82 39.181 117.835 38.166 119.07 38.166 C 120.304 38.166 121.32 39.181 121.32 40.416 Z" fill="none" stroke="#000" />
      <polygon points="362.82,85.416 380.82,40.416 398.82,76.416 416.82,31.416 434.82,67.416 452.82,40.416 362.82,85.416 362.82,85.416 " fill="none" stroke="#000" />
      <path d="M 365.07 85.416 C 365.07 86.65 364.054 87.666 362.82 87.666 C 361.586 87.666 360.57 86.65 360.57 85.416 C 360.57 84.181 361.586 83.166 362.82 83.166 C 364.054 83.166 365.07 84.181 365.07 85.416 " fill="#FFF" fill-rule="evenodd" stroke="none" />
      <path d="M 365.07 85.416 C 365.07 86.65 364.054 87.666 362.82 87.666 C 361.586 87.666 360.57 86.65 360.57 85.416 C 360.57 84.181 361.586 83.166 362.82 83.166 C 364.054 83.166 365.07 84.181 365.07 85.416 Z" fill="none" stroke="#000" />
      <path d="M 383.07 40.416 C 383.07 41.65 382.054 42.666 380.82 42.666 C 379.586 42.666 378.57 41.65 378.57 40.416 C 378.57 39.181 379.586 38.166 380.82 38.166 C 382.054 38.166 383.07 39.181 383.07 40.416 " fill="#FFF" fill-rule="evenodd" stroke="none" />
      <path d="M 383.07 40.416 C 383.07 41.65 382.054 42.666 380.82 42.666 C 379.586 42.666 378.57 41.65 378.57 40.416 C 378.57 39.181 379.586 38.166 380.82 38.166 C 382.054 38.166 383.07 39.181 383.07 40.416 Z" fill="none" stroke="#000" />
      <path d="M 401.07 76.416 C 401.07 77.65 400.054 78.666 398.82 78.666 C 397.586 78.666 396.57 77.65 396.57 76.416 C 396.57 75.181 397.586 74.166 398.82 74.166 C 400.054 74.166 401.07 75.181 401.07 76.416 " fill="#FFF" fill-rule="evenodd" stroke="none" />
      <path d="M 401.07 76.416 C 401.07 77.65 400.054 78.666 398.82 78.666 C 397.586 78.666 396.57 77.65 396.57 76.416 C 396.57 75.181 397.586 74.166 398.82 74.166 C 400.054 74.166 401.07 75.181 401.07 76.416 Z" fill="none" stroke="#000" />
      <circle cx="416.82px" cy="31.416px" r="2.25px" fill="#FFF" fill-rule="evenodd" stroke="none" />
      <circle cx="416.82px" cy="31.416px" r="2.25px" fill="none" stroke="#000" />
      <path d="M 437.07 67.416 C 437.07 68.65 436.054 69.666 434.82 69.666 C 433.586 69.666 432.57 68.65 432.57 67.416 C 432.57 66.181 433.586 65.166 434.82 65.166 C 436.054 65.166 437.07 66.181 437.07 67.416 " fill="#FFF" fill-rule="evenodd" stroke="none" />
      <path d="M 437.07 67.416 C 437.07 68.65 436.054 69.666 434.82 69.666 C 433.586 69.666 432.57 68.65 432.57 67.416 C 432.57 66.181 433.586 65.166 434.82 65.166 C 436.054 65.166 437.07 66.181 437.07 67.416 Z" fill="none" stroke="#000" />
      <path d="M 455.07 40.416 C 455.07 41.65 454.054 42.666 452.82 42.666 C 451.586 42.666 450.57 41.65 450.57 40.416 C 450.57 39.181 451.586 38.166 452.82 38.166 C 454.054 38.166 455.07 39.181 455.07 40.416 " fill="#FFF" fill-rule="evenodd" stroke="none" />
      <path d="M 455.07 40.416 C 455.07 41.65 454.054 42.666 452.82 42.666 C 451.586 42.666 450.57 41.65 450.57 40.416 C 450.57 39.181 451.586 38.166 452.82 38.166 C 454.054 38.166 455.07 39.181 455.07 40.416 Z" fill="none" stroke="#000" />
      <g transform="translate(202.32,178.916)" font-size="10px" font-family="'Times New Roman', serif">
         <text x="0px" y="9px">
            0
         </text>
      </g>
      <g transform="translate(211.32,122.666)" font-size="10px" font-family="'Times New Roman', serif">
         <text x="0px" y="9px">
            1
         </text>
      </g>
      <g transform="translate(238.32,169.916)" font-size="10px" font-family="'Times New Roman', serif">
         <text x="0px" y="9px">
            2
         </text>
      </g>
      <g transform="translate(245.07,115.916)" font-size="10px" font-family="'Times New Roman', serif">
         <text x="0px" y="9px">
            3
         </text>
      </g>
      <g transform="translate(274.32,160.916)" font-size="10px" font-family="'Times New Roman', serif">
         <text x="0px" y="9px">
            4
         </text>
      </g>
      <g transform="translate(287.82,120.416)" font-size="10px" font-family="'Times New Roman', serif">
         <text x="0px" y="9px">
            5
         </text>
      </g>
      <g transform="translate(198.32,190.916)" font-size="10px" font-family="Consolas, sans-serif">
         <text x="47.25px" y="10.2px" text-anchor="middle">
            GL_TRIANGLE_STRIP
         </text>
      </g>
      <g transform="translate(346.32,178.916)" font-size="10px" font-family="'Times New Roman', serif">
         <text x="0px" y="9px">
            0
         </text>
      </g>
      <g transform="translate(314.82,140.666)" font-size="10px" font-family="'Times New Roman', serif">
         <text x="0px" y="9px">
            1
         </text>
      </g>
      <g transform="translate(335.07,120.416)" font-size="10px" font-family="'Times New Roman', serif">
         <text x="0px" y="9px">
            2
         </text>
      </g>
      <g transform="translate(364.32,111.416)" font-size="10px" font-family="'Times New Roman', serif">
         <text x="0px" y="9px">
            3
         </text>
      </g>
      <g transform="translate(395.82,124.916)" font-size="10px" font-family="'Times New Roman', serif">
         <text x="0px" y="9px">
            4
         </text>
      </g>
      <g transform="translate(407.07,147.416)" font-size="10px" font-family="'Times New Roman', serif">
         <text x="0px" y="9px">
            5
         </text>
      </g>
      <g transform="translate(320.82,190.916)" font-size="10px" font-family="Consolas, sans-serif">
         <text x="41.75px" y="10.2px" text-anchor="middle">
            GL_TRIANGLE_FAN
         </text>
      </g>
      <g transform="translate(85.32,178.916)" font-size="10px" font-family="'Times New Roman', serif">
         <text x="0px" y="9px">
            0
         </text>
      </g>
      <g transform="translate(94.32,122.666)" font-size="10px" font-family="'Times New Roman', serif">
         <text x="0px" y="9px">
            1
         </text>
      </g>
      <g transform="translate(121.32,169.916)" font-size="10px" font-family="'Times New Roman', serif">
         <text x="0px" y="9px">
            2
         </text>
      </g>
      <g transform="translate(128.07,115.916)" font-size="10px" font-family="'Times New Roman', serif">
         <text x="0px" y="9px">
            3
         </text>
      </g>
      <g transform="translate(157.32,160.916)" font-size="10px" font-family="'Times New Roman', serif">
         <text x="0px" y="9px">
            4
         </text>
      </g>
      <g transform="translate(170.82,120.416)" font-size="10px" font-family="'Times New Roman', serif">
         <text x="0px" y="9px">
            5
         </text>
      </g>
      <g transform="translate(95.07,190.916)" font-size="10px" font-family="Consolas, sans-serif">
         <text x="33.5px" y="10.2px" text-anchor="middle">
            GL_TRIANGLES
         </text>
      </g>
      <g transform="translate(142.57,85.416)" font-size="10px" font-family="'Times New Roman', serif">
         <text x="0px" y="9px">
            0
         </text>
      </g>
      <g transform="translate(151.57,29.166)" font-size="10px" font-family="'Times New Roman', serif">
         <text x="0px" y="9px">
            1
         </text>
      </g>
      <g transform="translate(178.57,76.416)" font-size="10px" font-family="'Times New Roman', serif">
         <text x="0px" y="9px">
            2
         </text>
      </g>
      <g transform="translate(185.32,22.416)" font-size="10px" font-family="'Times New Roman', serif">
         <text x="0px" y="9px">
            3
         </text>
      </g>
      <g transform="translate(214.57,67.416)" font-size="10px" font-family="'Times New Roman', serif">
         <text x="0px" y="9px">
            4
         </text>
      </g>
      <g transform="translate(228.07,26.916)" font-size="10px" font-family="'Times New Roman', serif">
         <text x="0px" y="9px">
            5
         </text>
      </g>
      <g transform="translate(163.32,96.416)" font-size="10px" font-family="Consolas, sans-serif">
         <text x="22.5px" y="10.2px" text-anchor="middle">
            GL_LINES
         </text>
      </g>
      <g transform="translate(253.82,85.416)" font-size="10px" font-family="'Times New Roman', serif">
         <text x="0px" y="9px">
            0
         </text>
      </g>
      <g transform="translate(262.82,29.166)" font-size="10px" font-family="'Times New Roman', serif">
         <text x="0px" y="9px">
            1
         </text>
      </g>
      <g transform="translate(289.82,76.416)" font-size="10px" font-family="'Times New Roman', serif">
         <text x="0px" y="9px">
            2
         </text>
      </g>
      <g transform="translate(296.57,22.416)" font-size="10px" font-family="'Times New Roman', serif">
         <text x="0px" y="9px">
            3
         </text>
      </g>
      <g transform="translate(325.82,67.416)" font-size="10px" font-family="'Times New Roman', serif">
         <text x="0px" y="9px">
            4
         </text>
      </g>
      <g transform="translate(339.32,26.916)" font-size="10px" font-family="'Times New Roman', serif">
         <text x="0px" y="9px">
            5
         </text>
      </g>
      <g transform="translate(260.82,96.416)" font-size="10px" font-family="Consolas, sans-serif">
         <text x="36.25px" y="10.2px" text-anchor="middle">
            GL_LINE_STRIP
         </text>
      </g>
      <g transform="translate(31.32,85.416)" font-size="10px" font-family="'Times New Roman', serif">
         <text x="0px" y="9px">
            0
         </text>
      </g>
      <g transform="translate(40.32,29.166)" font-size="10px" font-family="'Times New Roman', serif">
         <text x="0px" y="9px">
            1
         </text>
      </g>
      <g transform="translate(67.32,76.416)" font-size="10px" font-family="'Times New Roman', serif">
         <text x="0px" y="9px">
            2
         </text>
      </g>
      <g transform="translate(74.07,22.416)" font-size="10px" font-family="'Times New Roman', serif">
         <text x="0px" y="9px">
            3
         </text>
      </g>
      <g transform="translate(103.32,67.416)" font-size="10px" font-family="'Times New Roman', serif">
         <text x="0px" y="9px">
            4
         </text>
      </g>
      <g transform="translate(116.82,26.916)" font-size="10px" font-family="'Times New Roman', serif">
         <text x="0px" y="9px">
            5
         </text>
      </g>
      <g transform="translate(49.32,96.416)" font-size="10px" font-family="Consolas, sans-serif">
         <text x="25.25px" y="10.2px" text-anchor="middle">
            GL_POINTS
         </text>
      </g>
      <g transform="translate(365.07,85.416)" font-size="10px" font-family="'Times New Roman', serif">
         <text x="0px" y="9px">
            0
         </text>
      </g>
      <g transform="translate(374.07,29.166)" font-size="10px" font-family="'Times New Roman', serif">
         <text x="0px" y="9px">
            1
         </text>
      </g>
      <g transform="translate(401.07,76.416)" font-size="10px" font-family="'Times New Roman', serif">
         <text x="0px" y="9px">
            2
         </text>
      </g>
      <g transform="translate(407.82,22.416)" font-size="10px" font-family="'Times New Roman', serif">
         <text x="0px" y="9px">
            3
         </text>
      </g>
      <g transform="translate(437.07,67.416)" font-size="10px" font-family="'Times New Roman', serif">
         <text x="0px" y="9px">
            4
         </text>
      </g>
      <g transform="translate(450.57,26.916)" font-size="10px" font-family="'Times New Roman', serif">
         <text x="0px" y="9px">
            5
         </text>
      </g>
      <g transform="translate(374.82,96.416)" font-size="10px" font-family="Consolas, sans-serif">
         <text x="33.5px" y="10.2px" text-anchor="middle">
            GL_LINE_LOOP
         </text>
      </g>
   </g>
</svg>