<?xml version="1.0" standalone="no"?>
<!DOCTYPE svg PUBLIC "-//W3C//DTD SVG 20010904//EN"
   "http://www.w3.org/TR/2001/REC-SVG-20010904/DTD/svg10.dtd">

<svg xmlns="http://www.w3.org/2000/svg" xmlns:xlink="http://www.w3.org/1999/xlink" width="227px" height="227px">
   <g id="cvpage1_top" width="227px" height="227px" transform="translate(0,0)">
      <rect x="14.173px" y="14.173px" width="198.425px" height="198.425px" fill="#EBEBEB" fill-rule="nonzero" stroke="#000" />
      <rect x="42.52px" y="42.52px" width="141.732px" height="141.732px" fill="#FFF" fill-rule="evenodd" stroke="none" />
      <rect x="77.953px" y="77.953px" width="70.866px" height="70.866px" fill="#E30000" fill-rule="evenodd" stroke="none" />
      <line x1="137.745px" y1="42.418px" x2="137.745px" y2="42.418px" fill="#FF8E8E" fill-rule="nonzero" stroke="#8E0000" />
      <rect x="42.52px" y="42.52px" width="141.732px" height="141.732px" fill="none" stroke="#000" />
      <line x1="113.386px" y1="212.599px" x2="113.386px" y2="19.745px" fill="none" stroke="#000" />
      <polygon points="113.386,14.173 115.694,19.745 111.078,19.745 113.386,14.173 " fill="#000" fill-rule="nonzero" stroke="#000" stroke-width="0.1px" />
      <line x1="14.173px" y1="113.386px" x2="207.027px" y2="113.386px" fill="none" stroke="#000" />
      <polygon points="212.599,113.386 207.027,115.694 207.027,111.078 212.599,113.386 " fill="#000" fill-rule="nonzero" stroke="#000" stroke-width="0.1px" />
      <path d="M 150.236 77.953 C 150.236 78.735 149.601 79.37 148.819 79.37 C 148.037 79.37 147.402 78.735 147.402 77.953 C 147.402 77.171 148.037 76.535 148.819 76.535 C 149.601 76.535 150.236 77.171 150.236 77.953 " fill="#000" fill-rule="evenodd" stroke="none" />
      <path d="M 150.361 148.836 C 150.361 149.619 149.726 150.254 148.944 150.254 C 148.162 150.254 147.527 149.619 147.527 148.836 C 147.527 148.054 148.162 147.419 148.944 147.419 C 149.726 147.419 150.361 148.054 150.361 148.836 " fill="#000" fill-rule="evenodd" stroke="none" />
      <path d="M 79.245 77.836 C 79.245 78.618 78.61 79.254 77.828 79.254 C 77.046 79.254 76.41 78.618 76.41 77.836 C 76.41 77.054 77.046 76.419 77.828 76.419 C 78.61 76.419 79.245 77.054 79.245 77.836 " fill="#000" fill-rule="evenodd" stroke="none" />
      <path d="M 79.37 148.72 C 79.37 149.502 78.735 150.137 77.953 150.137 C 77.171 150.137 76.535 149.502 76.535 148.72 C 76.535 147.938 77.171 147.303 77.953 147.303 C 78.735 147.303 79.37 147.938 79.37 148.72 " fill="#000" fill-rule="evenodd" stroke="none" />
      <g transform="translate(99.213,28.346)" font-size="10px" font-family="Symbol, fantasy">
         <text x="11.339px" y="10px" text-anchor="end">
            1
         </text>
      </g>
      <g transform="translate(184.252,113.386)" font-size="10px" font-family="Symbol, fantasy">
         <text x="5.669px" y="12px" text-anchor="middle" baseline-shift="sub">
            1
         </text>
      </g>
      <g transform="translate(28.346,113.386)" font-size="10px" font-family="Symbol, fantasy">
         <text x="11.339px" y="12px" text-anchor="end" baseline-shift="sub">
            -1
         </text>
      </g>
      <g transform="translate(99.213,184.252)" font-size="10px" font-family="Symbol, fantasy">
         <text x="11.339px" y="12px" text-anchor="end" baseline-shift="sub">
            -1
         </text>
      </g>
      <g transform="translate(102.047,113.386)" font-size="10px" font-family="'Times New Roman', serif">
         <text x="0px" y="11px" baseline-shift="sub">
            O
         </text>
      </g>
      <g transform="translate(187.087,99.213)" font-size="10px" font-family="'Times New Roman', serif">
         <text x="12.621px" y="9px" text-anchor="middle" font-style="oblique">
            x<tspan font-style="normal"> / </tspan>w
         </text>
      </g>
      <g transform="translate(85.04,14.173)" font-size="10px" font-family="'Times New Roman', serif">
         <text x="14.039px" y="9px" text-anchor="middle" font-style="oblique">
            y<tspan font-style="normal"> / </tspan>w
         </text>
      </g>
      <g transform="translate(124.819,64.335)" font-size="10px" font-family="Symbol, fantasy">
         <text x="24px" y="10px" text-anchor="middle">
            (0.5, 0.5, 0)
         </text>
      </g>
      <g transform="translate(122.069,148.819)" font-size="10px" font-family="Symbol, fantasy">
         <text x="26.75px" y="10px" text-anchor="middle">
            (0.5, -0.5, 0)
         </text>
      </g>
      <g transform="translate(51.203,64.335)" font-size="10px" font-family="Symbol, fantasy">
         <text x="26.75px" y="10px" text-anchor="middle">
            (-0.5, 0.5, 0)
         </text>
      </g>
      <g transform="translate(48.453,148.819)" font-size="10px" font-family="Symbol, fantasy">
         <text x="29.5px" y="10px" text-anchor="middle">
            (-0.5, -0.5, 0)
         </text>
      </g>
   </g>
</svg>