<?xml version="1.0" standalone="no"?>
<!DOCTYPE svg PUBLIC "-//W3C//DTD SVG 20010904//EN"
   "http://www.w3.org/TR/2001/REC-SVG-20010904/DTD/svg10.dtd">

<svg xmlns="http://www.w3.org/2000/svg" xmlns:xlink="http://www.w3.org/1999/xlink" width="340px" height="312px">
   <g id="cvpage2_top" width="340px" height="312px" transform="translate(0,0)">
      <rect x="14.173px" y="14.173px" width="311.811px" height="283.465px" fill="#EBEBEB" fill-rule="nonzero" stroke="#000" />
      <polygon points="311.811,147.402 187.087,147.402 195.591,155.905 187.087,164.409 311.811,164.409 311.811,147.402 " fill="#E4DAC1" fill-rule="nonzero" stroke="#000" />
      <polygon points="28.346,147.402 141.732,147.402 153.071,155.905 141.732,164.409 28.346,164.409 28.346,147.402 " fill="#E4DAC1" fill-rule="nonzero" stroke="#000" />
      <rect x="187.256px" y="28.346px" width="124.555px" height="112.462px" fill="#FFF" fill-rule="evenodd" stroke="none" />
      <rect x="212.424px" y="115.263px" width="12.32px" height="12.395px" fill="#6095C9" fill-rule="evenodd" stroke="none" />
      <rect x="212.424px" y="115.263px" width="12.32px" height="12.395px" fill="none" stroke="#47719C" stroke-width="1.209px" stroke-linejoin="round" />
      <rect x="224.744px" y="102.944px" width="12.319px" height="12.319px" fill="#6095C9" fill-rule="evenodd" stroke="none" />
      <rect x="224.744px" y="102.944px" width="12.319px" height="12.319px" fill="none" stroke="#47719C" stroke-width="1.209px" stroke-linejoin="round" />
      <line x1="187.71px" y1="28.875px" x2="187.71px" y2="139.977px" fill="none" stroke="#A1D562" stroke-width="0.604px" stroke-linejoin="round" />
      <line x1="187.71px" y1="28.875px" x2="311.131px" y2="28.875px" fill="none" stroke="#A1D562" stroke-width="0.604px" stroke-linejoin="round" />
      <line x1="187.71px" y1="41.196px" x2="311.131px" y2="41.196px" fill="none" stroke="#A1D562" stroke-width="0.604px" stroke-linejoin="round" />
      <line x1="187.71px" y1="53.59px" x2="311.131px" y2="53.59px" fill="none" stroke="#A1D562" stroke-width="0.604px" stroke-linejoin="round" />
      <line x1="187.71px" y1="65.909px" x2="311.131px" y2="65.909px" fill="none" stroke="#A1D562" stroke-width="0.604px" stroke-linejoin="round" />
      <line x1="187.71px" y1="78.23px" x2="311.131px" y2="78.23px" fill="none" stroke="#A1D562" stroke-width="0.604px" stroke-linejoin="round" />
      <line x1="187.71px" y1="90.624px" x2="311.131px" y2="90.624px" fill="none" stroke="#A1D562" stroke-width="0.604px" stroke-linejoin="round" />
      <line x1="187.71px" y1="102.944px" x2="311.131px" y2="102.944px" fill="none" stroke="#A1D562" stroke-width="0.604px" stroke-linejoin="round" />
      <line x1="187.71px" y1="115.263px" x2="311.131px" y2="115.263px" fill="none" stroke="#A1D562" stroke-width="0.604px" stroke-linejoin="round" />
      <line x1="187.71px" y1="127.657px" x2="311.131px" y2="127.657px" fill="none" stroke="#A1D562" stroke-width="0.604px" stroke-linejoin="round" />
      <line x1="187.71px" y1="139.977px" x2="311.131px" y2="139.977px" fill="none" stroke="#A1D562" stroke-width="0.604px" stroke-linejoin="round" />
      <line x1="200.029px" y1="28.875px" x2="200.029px" y2="139.977px" fill="none" stroke="#A1D562" stroke-width="0.604px" stroke-linejoin="round" />
      <line x1="212.424px" y1="28.875px" x2="212.424px" y2="139.977px" fill="none" stroke="#A1D562" stroke-width="0.604px" stroke-linejoin="round" />
      <line x1="224.744px" y1="28.875px" x2="224.743px" y2="139.977px" fill="none" stroke="#A1D562" stroke-width="0.604px" stroke-linejoin="round" />
      <line x1="237.063px" y1="28.875px" x2="237.063px" y2="139.977px" fill="none" stroke="#A1D562" stroke-width="0.604px" stroke-linejoin="round" />
      <line x1="249.458px" y1="28.875px" x2="249.458px" y2="139.977px" fill="none" stroke="#A1D562" stroke-width="0.604px" stroke-linejoin="round" />
      <line x1="261.777px" y1="28.875px" x2="261.777px" y2="139.977px" fill="none" stroke="#A1D562" stroke-width="0.604px" stroke-linejoin="round" />
      <line x1="274.097px" y1="28.875px" x2="274.097px" y2="139.977px" fill="none" stroke="#A1D562" stroke-width="0.604px" stroke-linejoin="round" />
      <line x1="286.416px" y1="28.875px" x2="286.416px" y2="139.977px" fill="none" stroke="#A1D562" stroke-width="0.604px" stroke-linejoin="round" />
      <line x1="298.811px" y1="28.875px" x2="298.811px" y2="139.977px" fill="none" stroke="#A1D562" stroke-width="0.604px" stroke-linejoin="round" />
      <line x1="311.131px" y1="28.875px" x2="311.131px" y2="139.977px" fill="none" stroke="#A1D562" stroke-width="0.604px" stroke-linejoin="round" />
      <rect x="237.063px" y="90.624px" width="12.395px" height="12.319px" fill="#6095C9" fill-rule="evenodd" stroke="none" />
      <rect x="237.063px" y="90.624px" width="12.395px" height="12.319px" fill="none" stroke="#47719C" stroke-width="1.209px" stroke-linejoin="round" />
      <rect x="249.458px" y="78.23px" width="12.319px" height="12.395px" fill="#6095C9" fill-rule="evenodd" stroke="none" />
      <rect x="249.458px" y="78.23px" width="12.319px" height="12.395px" fill="none" stroke="#47719C" stroke-width="1.209px" stroke-linejoin="round" />
      <rect x="249.458px" y="65.909px" width="12.319px" height="12.32px" fill="#6095C9" fill-rule="evenodd" stroke="none" />
      <rect x="249.458px" y="65.909px" width="12.319px" height="12.319px" fill="none" stroke="#47719C" stroke-width="1.209px" stroke-linejoin="round" />
      <rect x="261.777px" y="53.59px" width="12.32px" height="12.319px" fill="#6095C9" fill-rule="evenodd" stroke="none" />
      <rect x="261.777px" y="53.59px" width="12.32px" height="12.319px" fill="none" stroke="#47719C" stroke-width="1.209px" stroke-linejoin="round" />
      <rect x="274.097px" y="41.196px" width="12.319px" height="12.395px" fill="#6095C9" fill-rule="evenodd" stroke="none" />
      <rect x="274.097px" y="41.196px" width="12.319px" height="12.395px" fill="none" stroke="#47719C" stroke-width="1.209px" stroke-linejoin="round" />
      <line x1="280.294px" y1="47.392px" x2="279.133px" y2="48.785px" fill="none" stroke="#B7C0E6" stroke-width="1.813px" stroke-linejoin="round" />
      <line x1="277.971px" y1="50.179px" x2="276.81px" y2="51.572px" fill="none" stroke="#B7C0E6" stroke-width="1.813px" stroke-linejoin="round" />
      <line x1="275.648px" y1="52.965px" x2="274.487px" y2="54.358px" fill="none" stroke="#B7C0E6" stroke-width="1.813px" stroke-linejoin="round" />
      <line x1="273.325px" y1="55.752px" x2="272.164px" y2="57.145px" fill="none" stroke="#B7C0E6" stroke-width="1.813px" stroke-linejoin="round" />
      <line x1="271.002px" y1="58.538px" x2="269.841px" y2="59.931px" fill="none" stroke="#B7C0E6" stroke-width="1.813px" stroke-linejoin="round" />
      <line x1="268.679px" y1="61.325px" x2="267.518px" y2="62.718px" fill="none" stroke="#B7C0E6" stroke-width="1.813px" stroke-linejoin="round" />
      <line x1="266.356px" y1="64.112px" x2="265.195px" y2="65.504px" fill="none" stroke="#B7C0E6" stroke-width="1.813px" stroke-linejoin="round" />
      <line x1="264.033px" y1="66.898px" x2="262.872px" y2="68.291px" fill="none" stroke="#B7C0E6" stroke-width="1.813px" stroke-linejoin="round" />
      <line x1="261.71px" y1="69.684px" x2="260.549px" y2="71.078px" fill="none" stroke="#B7C0E6" stroke-width="1.813px" stroke-linejoin="round" />
      <line x1="259.387px" y1="72.472px" x2="258.226px" y2="73.865px" fill="none" stroke="#B7C0E6" stroke-width="1.813px" stroke-linejoin="round" />
      <line x1="257.064px" y1="75.257px" x2="255.903px" y2="76.65px" fill="none" stroke="#B7C0E6" stroke-width="1.813px" stroke-linejoin="round" />
      <line x1="254.741px" y1="78.043px" x2="253.58px" y2="79.438px" fill="none" stroke="#B7C0E6" stroke-width="1.813px" stroke-linejoin="round" />
      <line x1="252.418px" y1="80.831px" x2="251.257px" y2="82.224px" fill="none" stroke="#B7C0E6" stroke-width="1.813px" stroke-linejoin="round" />
      <line x1="250.095px" y1="83.617px" x2="248.933px" y2="85.01px" fill="none" stroke="#B7C0E6" stroke-width="1.813px" stroke-linejoin="round" />
      <line x1="247.772px" y1="86.403px" x2="246.61px" y2="87.796px" fill="none" stroke="#B7C0E6" stroke-width="1.813px" stroke-linejoin="round" />
      <line x1="245.449px" y1="89.189px" x2="244.287px" y2="90.584px" fill="none" stroke="#B7C0E6" stroke-width="1.813px" stroke-linejoin="round" />
      <line x1="243.126px" y1="91.977px" x2="241.964px" y2="93.37px" fill="none" stroke="#B7C0E6" stroke-width="1.813px" stroke-linejoin="round" />
      <line x1="240.803px" y1="94.763px" x2="239.641px" y2="96.156px" fill="none" stroke="#B7C0E6" stroke-width="1.813px" stroke-linejoin="round" />
      <line x1="238.48px" y1="97.549px" x2="237.318px" y2="98.942px" fill="none" stroke="#B7C0E6" stroke-width="1.813px" stroke-linejoin="round" />
      <line x1="236.157px" y1="100.335px" x2="234.995px" y2="101.73px" fill="none" stroke="#B7C0E6" stroke-width="1.813px" stroke-linejoin="round" />
      <line x1="233.834px" y1="103.123px" x2="232.672px" y2="104.516px" fill="none" stroke="#B7C0E6" stroke-width="1.813px" stroke-linejoin="round" />
      <line x1="231.511px" y1="105.909px" x2="230.349px" y2="107.302px" fill="none" stroke="#B7C0E6" stroke-width="1.813px" stroke-linejoin="round" />
      <line x1="229.188px" y1="108.695px" x2="228.026px" y2="110.088px" fill="none" stroke="#B7C0E6" stroke-width="1.813px" stroke-linejoin="round" />
      <line x1="226.865px" y1="111.481px" x2="225.703px" y2="112.876px" fill="none" stroke="#B7C0E6" stroke-width="1.813px" stroke-linejoin="round" />
      <line x1="224.542px" y1="114.269px" x2="223.38px" y2="115.662px" fill="none" stroke="#B7C0E6" stroke-width="1.813px" stroke-linejoin="round" />
      <line x1="222.219px" y1="117.055px" x2="221.057px" y2="118.448px" fill="none" stroke="#B7C0E6" stroke-width="1.813px" stroke-linejoin="round" />
      <line x1="219.896px" y1="119.841px" x2="218.734px" y2="121.234px" fill="none" stroke="#B7C0E6" stroke-width="1.813px" stroke-linejoin="round" />
      <path d="M 278.205 45.651 C 278.205 45.651 278.205 45.651 278.205 45.651 C 279.167 44.496 280.882 44.34 282.037 45.303 C 283.191 46.266 283.346 47.98 282.384 49.135 C 281.422 50.289 279.706 50.444 278.552 49.483 C 277.398 48.52 277.242 46.804 278.205 45.651 C 278.205 45.651 278.205 45.651 278.205 45.651 " fill="#B7C0E6" fill-rule="evenodd" stroke="none" />
      <path d="M 220.636 123.203 C 220.636 123.203 220.636 123.203 220.636 123.203 C 219.674 124.356 217.958 124.513 216.804 123.55 C 215.65 122.588 215.494 120.873 216.456 119.719 C 217.418 118.564 219.134 118.409 220.288 119.371 C 221.443 120.332 221.598 122.049 220.636 123.203 C 220.636 123.203 220.636 123.203 220.636 123.203 " fill="#B7C0E6" fill-rule="evenodd" stroke="none" />
      <rect x="187.256px" y="171.004px" width="124.555px" height="112.461px" fill="#FFF" fill-rule="evenodd" stroke="none" />
      <line x1="187.71px" y1="171.835px" x2="187.71px" y2="282.861px" fill="none" stroke="#A1D562" stroke-width="0.604px" stroke-linejoin="round" />
      <line x1="187.71px" y1="171.835px" x2="311.131px" y2="171.835px" fill="none" stroke="#A1D562" stroke-width="0.604px" stroke-linejoin="round" />
      <line x1="187.71px" y1="184.154px" x2="311.131px" y2="184.154px" fill="none" stroke="#A1D562" stroke-width="0.604px" stroke-linejoin="round" />
      <line x1="187.71px" y1="196.474px" x2="311.131px" y2="196.474px" fill="none" stroke="#A1D562" stroke-width="0.604px" stroke-linejoin="round" />
      <line x1="187.71px" y1="208.869px" x2="311.131px" y2="208.869px" fill="none" stroke="#A1D562" stroke-width="0.604px" stroke-linejoin="round" />
      <line x1="187.71px" y1="221.188px" x2="311.131px" y2="221.188px" fill="none" stroke="#A1D562" stroke-width="0.604px" stroke-linejoin="round" />
      <line x1="187.71px" y1="233.508px" x2="311.131px" y2="233.508px" fill="none" stroke="#A1D562" stroke-width="0.604px" stroke-linejoin="round" />
      <line x1="187.71px" y1="245.827px" x2="311.131px" y2="245.827px" fill="none" stroke="#A1D562" stroke-width="0.604px" stroke-linejoin="round" />
      <line x1="187.71px" y1="258.222px" x2="311.131px" y2="258.222px" fill="none" stroke="#A1D562" stroke-width="0.604px" stroke-linejoin="round" />
      <line x1="187.71px" y1="270.541px" x2="311.131px" y2="270.542px" fill="none" stroke="#A1D562" stroke-width="0.604px" stroke-linejoin="round" />
      <line x1="187.71px" y1="282.861px" x2="311.131px" y2="282.861px" fill="none" stroke="#A1D562" stroke-width="0.604px" stroke-linejoin="round" />
      <line x1="200.029px" y1="171.835px" x2="200.029px" y2="282.861px" fill="none" stroke="#A1D562" stroke-width="0.604px" stroke-linejoin="round" />
      <line x1="212.424px" y1="171.835px" x2="212.424px" y2="282.861px" fill="none" stroke="#A1D562" stroke-width="0.604px" stroke-linejoin="round" />
      <line x1="224.744px" y1="171.835px" x2="224.743px" y2="282.861px" fill="none" stroke="#A1D562" stroke-width="0.604px" stroke-linejoin="round" />
      <line x1="237.063px" y1="171.835px" x2="237.063px" y2="282.861px" fill="none" stroke="#A1D562" stroke-width="0.604px" stroke-linejoin="round" />
      <line x1="249.458px" y1="171.835px" x2="249.458px" y2="282.861px" fill="none" stroke="#A1D562" stroke-width="0.604px" stroke-linejoin="round" />
      <line x1="261.777px" y1="171.835px" x2="261.777px" y2="282.861px" fill="none" stroke="#A1D562" stroke-width="0.604px" stroke-linejoin="round" />
      <line x1="274.097px" y1="171.835px" x2="274.097px" y2="282.861px" fill="none" stroke="#A1D562" stroke-width="0.604px" stroke-linejoin="round" />
      <line x1="286.416px" y1="171.835px" x2="286.416px" y2="282.861px" fill="none" stroke="#A1D562" stroke-width="0.604px" stroke-linejoin="round" />
      <line x1="298.811px" y1="171.835px" x2="298.811px" y2="282.861px" fill="none" stroke="#A1D562" stroke-width="0.604px" stroke-linejoin="round" />
      <line x1="311.131px" y1="171.835px" x2="311.131px" y2="282.861px" fill="none" stroke="#A1D562" stroke-width="0.604px" stroke-linejoin="round" />
      <rect x="200.029px" y="221.188px" width="12.395px" height="12.32px" fill="#6095C9" fill-rule="evenodd" stroke="none" />
      <rect x="200.029px" y="221.188px" width="12.395px" height="12.32px" fill="none" stroke="#47719C" stroke-width="1.209px" stroke-linejoin="round" />
      <rect x="212.424px" y="221.188px" width="12.32px" height="12.32px" fill="#6095C9" fill-rule="evenodd" stroke="none" />
      <rect x="212.424px" y="221.188px" width="12.32px" height="12.32px" fill="none" stroke="#47719C" stroke-width="1.209px" stroke-linejoin="round" />
      <rect x="224.744px" y="221.188px" width="12.319px" height="12.32px" fill="#6095C9" fill-rule="evenodd" stroke="none" />
      <rect x="224.744px" y="221.188px" width="12.319px" height="12.32px" fill="none" stroke="#47719C" stroke-width="1.209px" stroke-linejoin="round" />
      <rect x="237.063px" y="221.188px" width="12.395px" height="12.32px" fill="#6095C9" fill-rule="evenodd" stroke="none" />
      <rect x="237.063px" y="221.188px" width="12.395px" height="12.32px" fill="none" stroke="#47719C" stroke-width="1.209px" stroke-linejoin="round" />
      <rect x="249.458px" y="221.188px" width="12.319px" height="12.32px" fill="#6095C9" fill-rule="evenodd" stroke="none" />
      <rect x="249.458px" y="221.188px" width="12.319px" height="12.32px" fill="none" stroke="#47719C" stroke-width="1.209px" stroke-linejoin="round" />
      <rect x="261.777px" y="221.188px" width="12.32px" height="12.32px" fill="#6095C9" fill-rule="evenodd" stroke="none" />
      <rect x="261.777px" y="221.188px" width="12.32px" height="12.32px" fill="none" stroke="#47719C" stroke-width="1.209px" stroke-linejoin="round" />
      <rect x="212.424px" y="208.869px" width="12.32px" height="12.319px" fill="#6095C9" fill-rule="evenodd" stroke="none" />
      <rect x="212.424px" y="208.869px" width="12.32px" height="12.319px" fill="none" stroke="#47719C" stroke-width="1.209px" stroke-linejoin="round" />
      <rect x="224.744px" y="208.869px" width="12.319px" height="12.319px" fill="#6095C9" fill-rule="evenodd" stroke="none" />
      <rect x="224.744px" y="208.869px" width="12.319px" height="12.319px" fill="none" stroke="#47719C" stroke-width="1.209px" stroke-linejoin="round" />
      <rect x="237.063px" y="208.869px" width="12.395px" height="12.319px" fill="#6095C9" fill-rule="evenodd" stroke="none" />
      <rect x="237.063px" y="208.869px" width="12.395px" height="12.319px" fill="none" stroke="#47719C" stroke-width="1.209px" stroke-linejoin="round" />
      <rect x="249.458px" y="208.869px" width="12.319px" height="12.319px" fill="#6095C9" fill-rule="evenodd" stroke="none" />
      <rect x="249.458px" y="208.869px" width="12.319px" height="12.319px" fill="none" stroke="#47719C" stroke-width="1.209px" stroke-linejoin="round" />
      <rect x="261.777px" y="208.869px" width="12.32px" height="12.319px" fill="#6095C9" fill-rule="evenodd" stroke="none" />
      <rect x="261.777px" y="208.869px" width="12.32px" height="12.319px" fill="none" stroke="#47719C" stroke-width="1.209px" stroke-linejoin="round" />
      <rect x="224.744px" y="196.474px" width="12.319px" height="12.395px" fill="#6095C9" fill-rule="evenodd" stroke="none" />
      <rect x="224.744px" y="196.474px" width="12.319px" height="12.395px" fill="none" stroke="#47719C" stroke-width="1.209px" stroke-linejoin="round" />
      <rect x="237.063px" y="196.474px" width="12.395px" height="12.395px" fill="#6095C9" fill-rule="evenodd" stroke="none" />
      <rect x="237.063px" y="196.474px" width="12.395px" height="12.395px" fill="none" stroke="#47719C" stroke-width="1.209px" stroke-linejoin="round" />
      <rect x="249.458px" y="196.474px" width="12.319px" height="12.395px" fill="#6095C9" fill-rule="evenodd" stroke="none" />
      <rect x="249.458px" y="196.474px" width="12.319px" height="12.395px" fill="none" stroke="#47719C" stroke-width="1.209px" stroke-linejoin="round" />
      <rect x="261.777px" y="196.474px" width="12.32px" height="12.395px" fill="#6095C9" fill-rule="evenodd" stroke="none" />
      <rect x="261.777px" y="196.474px" width="12.32px" height="12.395px" fill="none" stroke="#47719C" stroke-width="1.209px" stroke-linejoin="round" />
      <rect x="237.063px" y="184.154px" width="12.395px" height="12.32px" fill="#6095C9" fill-rule="evenodd" stroke="none" />
      <rect x="237.063px" y="184.154px" width="12.395px" height="12.32px" fill="none" stroke="#47719C" stroke-width="1.209px" stroke-linejoin="round" />
      <rect x="249.458px" y="184.154px" width="12.319px" height="12.32px" fill="#6095C9" fill-rule="evenodd" stroke="none" />
      <rect x="249.458px" y="184.154px" width="12.319px" height="12.32px" fill="none" stroke="#47719C" stroke-width="1.209px" stroke-linejoin="round" />
      <rect x="249.458px" y="171.835px" width="12.319px" height="12.319px" fill="#6095C9" fill-rule="evenodd" stroke="none" />
      <rect x="249.458px" y="171.835px" width="12.319px" height="12.319px" fill="none" stroke="#47719C" stroke-width="1.209px" stroke-linejoin="round" />
      <rect x="224.744px" y="233.508px" width="12.319px" height="12.319px" fill="#6095C9" fill-rule="evenodd" stroke="none" />
      <rect x="224.744px" y="233.508px" width="12.319px" height="12.319px" fill="none" stroke="#47719C" stroke-width="1.209px" stroke-linejoin="round" />
      <rect x="237.063px" y="233.508px" width="12.395px" height="12.319px" fill="#6095C9" fill-rule="evenodd" stroke="none" />
      <rect x="237.063px" y="233.508px" width="12.395px" height="12.319px" fill="none" stroke="#47719C" stroke-width="1.209px" stroke-linejoin="round" />
      <rect x="249.458px" y="233.508px" width="12.319px" height="12.319px" fill="#6095C9" fill-rule="evenodd" stroke="none" />
      <rect x="249.458px" y="233.508px" width="12.319px" height="12.319px" fill="none" stroke="#47719C" stroke-width="1.209px" stroke-linejoin="round" />
      <rect x="261.777px" y="233.508px" width="12.32px" height="12.319px" fill="#6095C9" fill-rule="evenodd" stroke="none" />
      <rect x="261.777px" y="233.508px" width="12.32px" height="12.319px" fill="none" stroke="#47719C" stroke-width="1.209px" stroke-linejoin="round" />
      <rect x="249.458px" y="245.827px" width="12.319px" height="12.395px" fill="#6095C9" fill-rule="evenodd" stroke="none" />
      <rect x="249.458px" y="245.827px" width="12.319px" height="12.395px" fill="none" stroke="#47719C" stroke-width="1.209px" stroke-linejoin="round" />
      <rect x="261.777px" y="245.827px" width="12.32px" height="12.395px" fill="#6095C9" fill-rule="evenodd" stroke="none" />
      <rect x="261.777px" y="245.827px" width="12.32px" height="12.395px" fill="none" stroke="#47719C" stroke-width="1.209px" stroke-linejoin="round" />
      <rect x="274.097px" y="258.222px" width="12.319px" height="12.319px" fill="#6095C9" fill-rule="evenodd" stroke="none" />
      <rect x="274.097px" y="258.222px" width="12.319px" height="12.319px" fill="none" stroke="#47719C" stroke-width="1.209px" stroke-linejoin="round" />
      <line x1="255.58px" y1="178.032px" x2="254.297px" y2="179.315px" fill="none" stroke="#B7C0E6" stroke-width="1.813px" stroke-linejoin="round" />
      <line x1="253.015px" y1="180.598px" x2="251.732px" y2="181.88px" fill="none" stroke="#B7C0E6" stroke-width="1.813px" stroke-linejoin="round" />
      <line x1="250.449px" y1="183.163px" x2="249.167px" y2="184.446px" fill="none" stroke="#B7C0E6" stroke-width="1.813px" stroke-linejoin="round" />
      <line x1="247.884px" y1="185.728px" x2="246.602px" y2="187.011px" fill="none" stroke="#B7C0E6" stroke-width="1.813px" stroke-linejoin="round" />
      <line x1="245.319px" y1="188.293px" x2="244.036px" y2="189.576px" fill="none" stroke="#B7C0E6" stroke-width="1.813px" stroke-linejoin="round" />
      <line x1="242.754px" y1="190.859px" x2="241.471px" y2="192.141px" fill="none" stroke="#B7C0E6" stroke-width="1.813px" stroke-linejoin="round" />
      <line x1="240.188px" y1="193.424px" x2="238.906px" y2="194.707px" fill="none" stroke="#B7C0E6" stroke-width="1.813px" stroke-linejoin="round" />
      <line x1="237.623px" y1="195.989px" x2="236.341px" y2="197.272px" fill="none" stroke="#B7C0E6" stroke-width="1.813px" stroke-linejoin="round" />
      <line x1="235.058px" y1="198.554px" x2="233.775px" y2="199.837px" fill="none" stroke="#B7C0E6" stroke-width="1.813px" stroke-linejoin="round" />
      <line x1="232.493px" y1="201.12px" x2="231.21px" y2="202.402px" fill="none" stroke="#B7C0E6" stroke-width="1.813px" stroke-linejoin="round" />
      <line x1="229.927px" y1="203.685px" x2="228.645px" y2="204.967px" fill="none" stroke="#B7C0E6" stroke-width="1.813px" stroke-linejoin="round" />
      <line x1="227.362px" y1="206.25px" x2="226.08px" y2="207.533px" fill="none" stroke="#B7C0E6" stroke-width="1.813px" stroke-linejoin="round" />
      <line x1="224.797px" y1="208.815px" x2="223.514px" y2="210.098px" fill="none" stroke="#B7C0E6" stroke-width="1.813px" stroke-linejoin="round" />
      <line x1="222.232px" y1="211.381px" x2="220.949px" y2="212.663px" fill="none" stroke="#B7C0E6" stroke-width="1.813px" stroke-linejoin="round" />
      <line x1="219.666px" y1="213.946px" x2="218.384px" y2="215.228px" fill="none" stroke="#B7C0E6" stroke-width="1.813px" stroke-linejoin="round" />
      <line x1="217.101px" y1="216.511px" x2="215.819px" y2="217.794px" fill="none" stroke="#B7C0E6" stroke-width="1.813px" stroke-linejoin="round" />
      <line x1="214.536px" y1="219.076px" x2="213.253px" y2="220.359px" fill="none" stroke="#B7C0E6" stroke-width="1.813px" stroke-linejoin="round" />
      <line x1="211.971px" y1="221.642px" x2="210.688px" y2="222.924px" fill="none" stroke="#B7C0E6" stroke-width="1.813px" stroke-linejoin="round" />
      <line x1="209.405px" y1="224.207px" x2="208.123px" y2="225.489px" fill="none" stroke="#B7C0E6" stroke-width="1.813px" stroke-linejoin="round" />
      <line x1="206.84px" y1="226.772px" x2="206.227px" y2="227.386px" fill="none" stroke="#B7C0E6" stroke-width="1.813px" stroke-linejoin="round" />
      <path d="M 253.656 176.109 C 253.656 176.109 253.656 176.109 253.656 176.109 C 254.719 175.046 256.441 175.046 257.504 176.109 C 258.566 177.171 258.566 178.894 257.504 179.956 C 256.441 181.019 254.719 181.019 253.656 179.956 C 252.593 178.894 252.593 177.171 253.656 176.109 C 253.656 176.109 253.656 176.109 253.656 176.109 " fill="#B7C0E6" fill-rule="evenodd" stroke="none" />
      <path d="M 208.151 229.31 C 208.151 229.31 208.151 229.31 208.151 229.31 C 207.088 230.372 205.365 230.372 204.303 229.31 C 203.24 228.247 203.24 226.524 204.303 225.462 C 205.365 224.399 207.088 224.399 208.151 225.462 C 209.213 226.524 209.213 228.247 208.151 229.31 C 208.151 229.31 208.151 229.31 208.151 229.31 " fill="#B7C0E6" fill-rule="evenodd" stroke="none" />
      <line x1="280.294px" y1="264.344px" x2="278.671px" y2="263.534px" fill="none" stroke="#B7C0E6" stroke-width="1.813px" stroke-linejoin="round" />
      <line x1="277.048px" y1="262.724px" x2="275.425px" y2="261.914px" fill="none" stroke="#B7C0E6" stroke-width="1.813px" stroke-linejoin="round" />
      <line x1="273.802px" y1="261.104px" x2="272.179px" y2="260.295px" fill="none" stroke="#B7C0E6" stroke-width="1.813px" stroke-linejoin="round" />
      <line x1="270.556px" y1="259.485px" x2="268.933px" y2="258.675px" fill="none" stroke="#B7C0E6" stroke-width="1.813px" stroke-linejoin="round" />
      <line x1="267.31px" y1="257.865px" x2="265.687px" y2="257.055px" fill="none" stroke="#B7C0E6" stroke-width="1.813px" stroke-linejoin="round" />
      <line x1="264.064px" y1="256.245px" x2="262.441px" y2="255.435px" fill="none" stroke="#B7C0E6" stroke-width="1.813px" stroke-linejoin="round" />
      <line x1="260.818px" y1="254.625px" x2="259.194px" y2="253.816px" fill="none" stroke="#B7C0E6" stroke-width="1.813px" stroke-linejoin="round" />
      <line x1="257.571px" y1="253.006px" x2="255.948px" y2="252.196px" fill="none" stroke="#B7C0E6" stroke-width="1.813px" stroke-linejoin="round" />
      <line x1="254.325px" y1="251.386px" x2="252.702px" y2="250.576px" fill="none" stroke="#B7C0E6" stroke-width="1.813px" stroke-linejoin="round" />
      <line x1="251.079px" y1="249.766px" x2="249.456px" y2="248.956px" fill="none" stroke="#B7C0E6" stroke-width="1.813px" stroke-linejoin="round" />
      <line x1="247.833px" y1="248.146px" x2="246.21px" y2="247.337px" fill="none" stroke="#B7C0E6" stroke-width="1.813px" stroke-linejoin="round" />
      <line x1="244.587px" y1="246.527px" x2="242.964px" y2="245.717px" fill="none" stroke="#B7C0E6" stroke-width="1.813px" stroke-linejoin="round" />
      <line x1="241.341px" y1="244.907px" x2="239.718px" y2="244.097px" fill="none" stroke="#B7C0E6" stroke-width="1.813px" stroke-linejoin="round" />
      <line x1="238.095px" y1="243.287px" x2="236.472px" y2="242.477px" fill="none" stroke="#B7C0E6" stroke-width="1.813px" stroke-linejoin="round" />
      <line x1="234.848px" y1="241.667px" x2="233.225px" y2="240.858px" fill="none" stroke="#B7C0E6" stroke-width="1.813px" stroke-linejoin="round" />
      <line x1="231.602px" y1="240.048px" x2="229.979px" y2="239.238px" fill="none" stroke="#B7C0E6" stroke-width="1.813px" stroke-linejoin="round" />
      <line x1="228.356px" y1="238.428px" x2="226.733px" y2="237.618px" fill="none" stroke="#B7C0E6" stroke-width="1.813px" stroke-linejoin="round" />
      <line x1="225.11px" y1="236.808px" x2="223.487px" y2="235.998px" fill="none" stroke="#B7C0E6" stroke-width="1.813px" stroke-linejoin="round" />
      <line x1="221.864px" y1="235.188px" x2="220.241px" y2="234.379px" fill="none" stroke="#B7C0E6" stroke-width="1.813px" stroke-linejoin="round" />
      <line x1="218.618px" y1="233.569px" x2="216.995px" y2="232.759px" fill="none" stroke="#B7C0E6" stroke-width="1.813px" stroke-linejoin="round" />
      <line x1="215.372px" y1="231.949px" x2="213.749px" y2="231.139px" fill="none" stroke="#B7C0E6" stroke-width="1.813px" stroke-linejoin="round" />
      <line x1="212.126px" y1="230.329px" x2="210.502px" y2="229.519px" fill="none" stroke="#B7C0E6" stroke-width="1.813px" stroke-linejoin="round" />
      <line x1="208.879px" y1="228.709px" x2="207.256px" y2="227.9px" fill="none" stroke="#B7C0E6" stroke-width="1.813px" stroke-linejoin="round" />
      <path d="M 281.509 261.909 C 281.509 261.909 281.509 261.909 281.509 261.909 C 282.854 262.58 283.4 264.214 282.729 265.559 C 282.058 266.903 280.424 267.449 279.08 266.779 C 277.735 266.108 277.189 264.474 277.86 263.129 C 278.531 261.785 280.165 261.238 281.509 261.909 C 281.509 261.909 281.509 261.909 281.509 261.909 " fill="#B7C0E6" fill-rule="evenodd" stroke="none" />
      <path d="M 205.012 229.82 C 205.012 229.82 205.012 229.82 205.012 229.82 C 203.667 229.149 203.121 227.515 203.792 226.171 C 204.463 224.826 206.097 224.28 207.442 224.951 C 208.786 225.622 209.332 227.256 208.661 228.601 C 207.99 229.945 206.356 230.491 205.012 229.82 C 205.012 229.82 205.012 229.82 205.012 229.82 " fill="#B7C0E6" fill-rule="evenodd" stroke="none" />
      <line x1="280.294px" y1="264.344px" x2="279.795px" y2="262.6px" fill="none" stroke="#B7C0E6" stroke-width="1.813px" stroke-linejoin="round" />
      <line x1="279.296px" y1="260.856px" x2="278.796px" y2="259.113px" fill="none" stroke="#B7C0E6" stroke-width="1.813px" stroke-linejoin="round" />
      <line x1="278.297px" y1="257.369px" x2="277.798px" y2="255.625px" fill="none" stroke="#B7C0E6" stroke-width="1.813px" stroke-linejoin="round" />
      <line x1="277.298px" y1="253.881px" x2="276.799px" y2="252.137px" fill="none" stroke="#B7C0E6" stroke-width="1.813px" stroke-linejoin="round" />
      <line x1="276.3px" y1="250.393px" x2="275.8px" y2="248.65px" fill="none" stroke="#B7C0E6" stroke-width="1.813px" stroke-linejoin="round" />
      <line x1="275.301px" y1="246.906px" x2="274.802px" y2="245.162px" fill="none" stroke="#B7C0E6" stroke-width="1.813px" stroke-linejoin="round" />
      <line x1="274.302px" y1="243.418px" x2="273.803px" y2="241.674px" fill="none" stroke="#B7C0E6" stroke-width="1.813px" stroke-linejoin="round" />
      <line x1="273.304px" y1="239.93px" x2="272.804px" y2="238.187px" fill="none" stroke="#B7C0E6" stroke-width="1.813px" stroke-linejoin="round" />
      <line x1="272.305px" y1="236.443px" x2="271.806px" y2="234.699px" fill="none" stroke="#B7C0E6" stroke-width="1.813px" stroke-linejoin="round" />
      <line x1="271.306px" y1="232.955px" x2="270.807px" y2="231.211px" fill="none" stroke="#B7C0E6" stroke-width="1.813px" stroke-linejoin="round" />
      <line x1="270.308px" y1="229.468px" x2="269.808px" y2="227.724px" fill="none" stroke="#B7C0E6" stroke-width="1.813px" stroke-linejoin="round" />
      <line x1="269.309px" y1="225.98px" x2="268.81px" y2="224.236px" fill="none" stroke="#B7C0E6" stroke-width="1.813px" stroke-linejoin="round" />
      <line x1="268.31px" y1="222.492px" x2="267.811px" y2="220.748px" fill="none" stroke="#B7C0E6" stroke-width="1.813px" stroke-linejoin="round" />
      <line x1="267.312px" y1="219.005px" x2="266.813px" y2="217.261px" fill="none" stroke="#B7C0E6" stroke-width="1.813px" stroke-linejoin="round" />
      <line x1="266.313px" y1="215.517px" x2="265.814px" y2="213.773px" fill="none" stroke="#B7C0E6" stroke-width="1.813px" stroke-linejoin="round" />
      <line x1="265.315px" y1="212.029px" x2="264.815px" y2="210.285px" fill="none" stroke="#B7C0E6" stroke-width="1.813px" stroke-linejoin="round" />
      <line x1="264.316px" y1="208.542px" x2="263.817px" y2="206.798px" fill="none" stroke="#B7C0E6" stroke-width="1.813px" stroke-linejoin="round" />
      <line x1="263.317px" y1="205.054px" x2="262.818px" y2="203.31px" fill="none" stroke="#B7C0E6" stroke-width="1.813px" stroke-linejoin="round" />
      <line x1="262.319px" y1="201.566px" x2="261.819px" y2="199.823px" fill="none" stroke="#B7C0E6" stroke-width="1.813px" stroke-linejoin="round" />
      <line x1="261.32px" y1="198.079px" x2="260.821px" y2="196.335px" fill="none" stroke="#B7C0E6" stroke-width="1.813px" stroke-linejoin="round" />
      <line x1="260.321px" y1="194.591px" x2="259.822px" y2="192.847px" fill="none" stroke="#B7C0E6" stroke-width="1.813px" stroke-linejoin="round" />
      <line x1="259.323px" y1="191.103px" x2="258.823px" y2="189.36px" fill="none" stroke="#B7C0E6" stroke-width="1.813px" stroke-linejoin="round" />
      <line x1="258.324px" y1="187.616px" x2="257.825px" y2="185.872px" fill="none" stroke="#B7C0E6" stroke-width="1.813px" stroke-linejoin="round" />
      <line x1="257.325px" y1="184.128px" x2="256.826px" y2="182.384px" fill="none" stroke="#B7C0E6" stroke-width="1.813px" stroke-linejoin="round" />
      <line x1="256.327px" y1="180.641px" x2="255.827px" y2="178.897px" fill="none" stroke="#B7C0E6" stroke-width="1.813px" stroke-linejoin="round" />
      <path d="M 277.679 265.093 C 277.679 265.093 277.679 265.093 277.679 265.093 C 278.092 266.538 279.599 267.373 281.043 266.96 C 282.488 266.546 283.324 265.04 282.91 263.595 C 282.496 262.15 280.99 261.315 279.545 261.728 C 278.101 262.142 277.265 263.648 277.679 265.093 C 277.679 265.093 277.679 265.093 277.679 265.093 " fill="#B7C0E6" fill-rule="evenodd" stroke="none" />
      <path d="M 258.196 177.284 C 258.196 177.284 258.196 177.284 258.196 177.284 C 257.782 175.839 256.276 175.003 254.831 175.417 C 253.386 175.83 252.551 177.337 252.964 178.781 C 253.378 180.226 254.884 181.062 256.329 180.648 C 257.774 180.235 258.609 178.728 258.196 177.284 C 258.196 177.284 258.196 177.284 258.196 177.284 " fill="#B7C0E6" fill-rule="evenodd" stroke="none" />
      <rect x="28.346px" y="171.684px" width="122.689px" height="111.099px" fill="#FFF" fill-rule="nonzero" stroke="#000" />
      <polygon points="95.055,177.984 119.68,264.359 45.93,227.359 95.055,177.984 " fill="#6095C9" fill-rule="nonzero" stroke="#000" />
      <line x1="95.099px" y1="177.825px" x2="45.745px" y2="227.178px" fill="none" stroke="#002F73" stroke-width="1.813px" stroke-linejoin="round" />
      <path d="M 93.174 175.901 C 93.174 175.901 93.174 175.901 93.174 175.901 C 94.237 174.838 95.96 174.838 97.022 175.901 C 98.085 176.964 98.085 178.686 97.022 179.749 C 95.96 180.811 94.237 180.811 93.174 179.749 C 92.112 178.686 92.112 176.964 93.174 175.901 C 93.174 175.901 93.174 175.901 93.174 175.901 " fill="#002F73" fill-rule="evenodd" stroke="none" />
      <path d="M 47.669 229.102 C 47.669 229.102 47.669 229.102 47.669 229.102 C 46.606 230.165 44.883 230.165 43.821 229.102 C 42.758 228.04 42.758 226.317 43.821 225.254 C 44.883 224.192 46.606 224.192 47.669 225.254 C 48.731 226.317 48.731 228.04 47.669 229.102 C 47.669 229.102 47.669 229.102 47.669 229.102 " fill="#002F73" fill-rule="evenodd" stroke="none" />
      <line x1="119.813px" y1="264.212px" x2="45.745px" y2="227.178px" fill="none" stroke="#002F73" stroke-width="1.813px" stroke-linejoin="round" />
      <path d="M 121.029 261.778 C 121.029 261.778 121.029 261.778 121.029 261.778 C 122.374 262.45 122.918 264.085 122.246 265.429 C 121.575 266.773 119.939 267.318 118.596 266.646 C 117.251 265.974 116.707 264.339 117.379 262.995 C 118.05 261.651 119.686 261.106 121.029 261.778 C 121.029 261.778 121.029 261.778 121.029 261.778 " fill="#002F73" fill-rule="evenodd" stroke="none" />
      <path d="M 44.529 229.612 C 44.529 229.612 44.529 229.612 44.529 229.612 C 43.184 228.94 42.639 227.305 43.312 225.961 C 43.983 224.617 45.617 224.073 46.962 224.745 C 48.306 225.417 48.85 227.051 48.178 228.395 C 47.507 229.739 45.873 230.284 44.529 229.612 C 44.529 229.612 44.529 229.612 44.529 229.612 " fill="#002F73" fill-rule="evenodd" stroke="none" />
      <line x1="119.813px" y1="264.212px" x2="95.099px" y2="177.825px" fill="none" stroke="#002F73" stroke-width="1.813px" stroke-linejoin="round" />
      <path d="M 117.197 264.96 C 117.197 264.96 117.197 264.96 117.197 264.96 C 117.609 266.405 119.117 267.241 120.561 266.828 C 122.005 266.415 122.841 264.908 122.428 263.464 C 122.016 262.019 120.508 261.183 119.064 261.596 C 117.62 262.009 116.784 263.516 117.197 264.96 C 117.197 264.96 117.197 264.96 117.197 264.96 " fill="#002F73" fill-rule="evenodd" stroke="none" />
      <path d="M 97.715 177.077 C 97.715 177.077 97.715 177.077 97.715 177.077 C 97.3 175.632 95.794 174.796 94.35 175.209 C 92.904 175.622 92.069 177.129 92.483 178.573 C 92.895 180.018 94.401 180.854 95.847 180.441 C 97.291 180.027 98.127 178.521 97.715 177.077 C 97.715 177.077 97.715 177.077 97.715 177.077 " fill="#002F73" fill-rule="evenodd" stroke="none" />
      <rect x="28.346px" y="29.027px" width="122.689px" height="111.1px" fill="#FFF" fill-rule="nonzero" stroke="#000" />
      <line x1="119.963px" y1="47.6px" x2="58.291px" y2="121.668px" fill="none" stroke="#002F73" stroke-width="1.813px" stroke-linejoin="round" />
      <path d="M 117.873 45.859 C 117.873 45.859 117.873 45.859 117.873 45.859 C 118.835 44.706 120.549 44.548 121.704 45.51 C 122.859 46.471 123.016 48.188 122.055 49.342 C 121.094 50.496 119.377 50.654 118.222 49.691 C 117.067 48.73 116.912 47.014 117.873 45.859 C 117.873 45.859 117.873 45.859 117.873 45.859 " fill="#002F73" fill-rule="evenodd" stroke="none" />
      <path d="M 60.382 123.409 C 60.382 123.409 60.382 123.409 60.382 123.409 C 59.42 124.564 57.705 124.722 56.55 123.76 C 55.395 122.797 55.239 121.082 56.2 119.927 C 57.161 118.772 58.877 118.617 60.032 119.578 C 61.187 120.54 61.343 122.254 60.382 123.409 C 60.382 123.409 60.382 123.409 60.382 123.409 " fill="#002F73" fill-rule="evenodd" stroke="none" />
      <polygon points="155.905,91.663 155.905,77.49 166.519,77.49 166.519,70.404 184.252,84.576 166.519,98.75 166.519,91.663 155.905,91.663 " fill="#E4DAC1" fill-rule="nonzero" stroke="#000" stroke-linecap="round" stroke-linejoin="round" />
      <polygon points="155.905,234.319 155.905,220.147 166.519,220.147 166.519,213.06 184.252,227.233 166.519,241.406 166.519,234.319 155.905,234.319 " fill="#E4DAC1" fill-rule="nonzero" stroke="#000" stroke-linecap="round" stroke-linejoin="round" />
      <rect x="158.868px" y="121.162px" width="21.453px" height="70.27px" fill="#6095C9" fill-rule="nonzero" stroke="#47719C" stroke-width="1.18px" stroke-linejoin="round" />
      <path d="M 173.375 129.087 C 173.375 129.087 165.975 129.087 165.975 129.087 C 165.975 129.087 165.975 127.887 165.975 127.887 C 165.975 127.887 173.375 127.887 173.375 127.887 C 173.375 127.887 173.375 129.087 173.375 129.087 M 173.775 130.287 C 173.764 131.175 173.616 131.991 173.323 132.772 C 173.03 133.553 172.563 134.188 171.9 134.706 C 171.236 135.225 170.502 135.571 169.661 135.761 C 168.82 135.951 167.965 136.058 167.056 136.087 C 167.056 136.087 166.775 134.887 166.775 134.887 C 168.555 134.787 169.819 134.478 170.626 133.948 C 171.434 133.418 171.942 132.611 172.175 131.487 C 172.175 131.487 165.775 131.487 165.775 131.487 C 165.775 131.487 165.775 130.287 165.775 130.287 C 165.775 130.287 173.775 130.287 173.775 130.287 " fill="#FFF" fill-rule="evenodd" stroke="none" />
      <path d="M 174.575 145.037 C 174.575 145.037 173.475 146.087 173.475 146.087 C 172.895 145.447 171.8 144.427 170.137 142.978 C 168.655 144.389 167.129 145.409 165.487 146.087 C 165.487 146.087 164.775 144.937 164.775 144.937 C 166.045 144.396 167.254 143.613 168.458 142.553 C 169.662 141.493 170.531 140.358 171.106 139.094 C 171.106 139.094 166.175 139.087 166.175 139.087 C 166.175 139.087 166.175 137.887 166.175 137.887 C 166.175 137.887 172.575 137.887 172.575 137.887 C 172.575 137.887 172.975 138.25 172.975 138.25 C 172.738 139.088 172.475 139.758 172.175 140.292 C 171.875 140.826 171.503 141.366 171.044 141.937 C 172.461 143.103 173.619 144.12 174.575 145.037 C 174.575 145.037 174.575 145.037 174.575 145.037 " fill="#FFF" fill-rule="evenodd" stroke="none" />
      <path d="M 173.975 148.287 C 173.962 148.867 173.919 149.355 173.844 149.775 C 173.703 150.543 173.486 151.237 173.181 151.887 C 172.877 152.538 172.465 153.127 171.926 153.683 C 171.388 154.238 170.722 154.711 169.897 155.123 C 169.071 155.536 168.142 155.852 167.062 156.087 C 167.062 156.087 166.575 154.887 166.575 154.887 C 168.32 154.545 169.658 153.898 170.653 152.916 C 169.863 152.531 168.985 152.166 167.975 151.803 C 167.975 151.803 168.653 150.687 168.653 150.687 C 169.526 150.967 170.464 151.342 171.509 151.831 C 171.908 151.195 172.192 150.426 172.375 149.487 C 172.375 149.487 169.065 149.487 169.065 149.487 C 168.249 150.917 167.169 152.033 165.775 152.887 C 165.775 152.887 164.975 151.865 164.975 151.865 C 165.855 151.311 166.58 150.643 167.186 149.828 C 167.792 149.013 168.214 148.18 168.475 147.287 C 168.475 147.287 169.975 147.465 169.975 147.465 C 169.836 147.848 169.734 148.117 169.662 148.287 C 169.662 148.287 173.975 148.287 173.975 148.287 " fill="#FFF" fill-rule="evenodd" stroke="none" />
      <path d="M 167.753 166.087 C 167.753 166.087 166.397 166.087 166.397 166.087 C 166.397 166.087 166.397 161.962 166.397 161.962 C 166.21 162.244 165.985 162.547 165.712 162.887 C 165.712 162.887 164.844 162.106 164.844 162.106 C 165.131 161.753 165.533 161.094 166.069 160.097 C 166.604 159.1 166.997 158.112 167.265 157.087 C 167.265 157.087 168.631 157.328 168.631 157.328 C 168.354 158.298 167.997 159.176 167.544 160.003 C 167.544 160.003 167.753 160.003 167.753 160.003 C 167.753 160.003 167.753 166.087 167.753 166.087 M 174.444 164.759 C 174.444 165.047 174.35 165.28 174.158 165.469 C 173.965 165.658 173.743 165.773 173.478 165.819 C 173.213 165.865 172.722 165.887 171.981 165.887 C 171.019 165.887 170.421 165.861 170.158 165.808 C 169.894 165.754 169.697 165.638 169.556 165.453 C 169.415 165.268 169.347 165.027 169.347 164.719 C 169.347 164.719 169.347 157.287 169.347 157.287 C 169.347 157.287 170.694 157.287 170.694 157.287 C 170.694 157.287 170.694 160.112 170.694 160.112 C 172.046 159.373 172.965 158.774 173.497 158.287 C 173.497 158.287 174.472 159.237 174.472 159.237 C 173.586 159.976 172.346 160.731 170.694 161.537 C 170.694 161.537 170.694 164.347 170.694 164.347 C 170.694 164.498 170.751 164.591 170.869 164.63 C 170.986 164.668 171.351 164.687 171.981 164.687 C 172.04 164.687 172.306 164.678 172.794 164.659 C 172.97 164.653 173.075 164.577 173.112 164.427 C 173.15 164.276 173.186 163.771 173.222 162.887 C 173.222 162.887 174.444 163.072 174.444 163.072 C 174.444 163.072 174.444 164.759 174.444 164.759 " fill="#FFF" fill-rule="evenodd" stroke="none" />
      <path d="M 169.347 169.016 C 169.347 170.855 168.966 172.382 168.187 173.669 C 168.664 174.194 169.226 174.522 169.9 174.669 C 170.574 174.816 171.532 174.887 172.822 174.887 C 173.357 174.887 173.916 174.875 174.525 174.85 C 174.525 174.85 174.272 175.878 174.272 175.878 C 174.186 175.876 174.086 175.875 173.969 175.875 C 173.969 175.875 172.534 175.887 172.534 175.887 C 171.262 175.887 170.272 175.803 169.519 175.63 C 168.765 175.456 168.111 175.104 167.525 174.556 C 167.019 175.106 166.389 175.609 165.606 176.087 C 165.606 176.087 164.912 175.337 164.912 175.337 C 165.719 174.785 166.337 174.222 166.797 173.622 C 166.499 173.139 166.276 172.621 166.119 172.044 C 165.986 172.279 165.85 172.49 165.703 172.687 C 165.703 172.687 164.834 172.041 164.834 172.041 C 165.231 171.459 165.569 170.682 165.864 169.672 C 166.159 168.662 166.353 167.814 166.456 167.087 C 166.456 167.087 167.734 167.222 167.734 167.222 C 167.678 167.585 167.609 167.935 167.525 168.287 C 167.525 168.287 169.347 168.287 169.347 168.287 C 169.347 168.287 169.347 169.016 169.347 169.016 M 167.44 172.541 C 167.873 171.581 168.084 170.539 168.084 169.365 C 168.084 169.365 168.084 169.287 168.084 169.287 C 168.084 169.287 167.269 169.287 167.269 169.287 C 167.233 169.401 167.116 169.738 166.912 170.315 C 166.912 171.073 167.086 171.804 167.44 172.541 C 167.44 172.541 167.44 172.541 167.44 172.541 M 174.403 173.344 C 174.403 173.667 174.303 173.901 174.098 174.056 C 173.893 174.212 173.565 174.287 173.097 174.287 C 172.242 174.287 171.825 173.979 171.825 173.347 C 171.825 173.347 171.825 168.487 171.825 168.487 C 171.825 168.487 171.065 168.487 171.065 168.487 C 171.065 168.487 171.065 170.181 171.065 170.181 C 171.065 171.915 170.608 173.263 169.672 174.287 C 169.672 174.287 168.831 173.65 168.831 173.65 C 169.545 172.756 169.894 171.632 169.894 170.225 C 169.894 170.225 169.894 167.487 169.894 167.487 C 169.894 167.487 173.022 167.487 173.022 167.487 C 173.022 167.487 173.022 173.109 173.022 173.109 C 173.022 173.229 173.087 173.287 173.222 173.287 C 173.28 173.287 173.327 173.276 173.364 173.253 C 173.401 173.23 173.425 173.196 173.437 173.15 C 173.45 173.104 173.465 172.971 173.483 172.747 C 173.5 172.522 173.517 172.174 173.534 171.687 C 173.534 171.687 174.403 171.787 174.403 171.787 C 174.403 171.787 174.403 173.344 174.403 173.344 " fill="#FFF" fill-rule="evenodd" stroke="none" />
      <path d="M 168.256 183.687 C 167.519 184.004 166.508 184.333 165.175 184.687 C 165.175 184.687 164.897 183.487 164.897 183.487 C 164.897 183.487 166.094 183.19 166.094 183.19 C 166.094 183.19 166.094 181.087 166.094 181.087 C 166.094 181.087 165.156 181.087 165.156 181.087 C 165.156 181.087 165.156 180.087 165.156 180.087 C 165.156 180.087 166.094 180.087 166.094 180.087 C 166.094 180.087 166.094 178.487 166.094 178.487 C 166.094 178.487 165.156 178.487 165.156 178.487 C 165.156 178.487 165.156 177.487 165.156 177.487 C 165.156 177.487 168.265 177.487 168.265 177.487 C 168.265 177.487 168.265 178.487 168.265 178.487 C 168.265 178.487 167.372 178.487 167.372 178.487 C 167.372 178.487 167.372 180.087 167.372 180.087 C 167.372 180.087 168.184 180.087 168.184 180.087 C 168.184 180.087 168.184 181.087 168.184 181.087 C 168.184 181.087 167.372 181.087 167.372 181.087 C 167.372 181.087 167.372 182.822 167.372 182.822 C 167.762 182.698 168.072 182.588 168.315 182.487 C 168.315 182.487 168.362 183.087 168.362 183.087 C 168.362 183.087 170.584 183.087 170.584 183.087 C 170.584 183.087 170.584 182.287 170.584 182.287 C 170.584 182.287 168.487 182.287 168.487 182.287 C 168.487 182.287 168.487 177.287 168.487 177.287 C 168.487 177.287 174.034 177.287 174.034 177.287 C 174.034 177.287 174.034 182.287 174.034 182.287 C 174.034 182.287 171.953 182.287 171.953 182.287 C 171.953 182.287 171.953 183.087 171.953 183.087 C 171.953 183.087 174.156 183.087 174.156 183.087 C 174.156 183.087 174.156 184.087 174.156 184.087 C 174.156 184.087 171.953 184.087 171.953 184.087 C 171.953 184.087 171.953 184.887 171.953 184.887 C 171.953 184.887 174.469 184.887 174.469 184.887 C 174.469 184.887 174.469 185.887 174.469 185.887 C 174.469 185.887 167.934 185.887 167.934 185.887 C 167.934 185.887 167.934 184.887 167.934 184.887 C 167.934 184.887 170.584 184.887 170.584 184.887 C 170.584 184.887 170.584 184.087 170.584 184.087 C 170.584 184.087 168.256 184.087 168.256 184.087 C 168.256 184.087 168.256 183.687 168.256 183.687 M 171.953 179.287 C 171.953 179.287 172.715 179.287 172.715 179.287 C 172.715 179.287 172.715 178.287 172.715 178.287 C 172.715 178.287 171.953 178.287 171.953 178.287 C 171.953 178.287 171.953 179.287 171.953 179.287 M 169.794 179.287 C 169.794 179.287 170.584 179.287 170.584 179.287 C 170.584 179.287 170.584 178.287 170.584 178.287 C 170.584 178.287 169.794 178.287 169.794 178.287 C 169.794 178.287 169.794 179.287 169.794 179.287 M 170.584 180.287 C 170.584 180.287 169.794 180.287 169.794 180.287 C 169.794 180.287 169.794 181.287 169.794 181.287 C 169.794 181.287 170.584 181.287 170.584 181.287 C 170.584 181.287 170.584 180.287 170.584 180.287 M 172.715 180.287 C 172.715 180.287 171.953 180.287 171.953 180.287 C 171.953 180.287 171.953 181.287 171.953 181.287 C 171.953 181.287 172.715 181.287 172.715 181.287 C 172.715 181.287 172.715 180.287 172.715 180.287 " fill="#FFF" fill-rule="evenodd" stroke="none" />
      <g transform="translate(195.591,149.13)" font-size="10px" font-family="Meiryo, sans-serif">
         <text x="58.11px" y="9.6px" text-anchor="middle">
            画像データ (画素データ)
         </text>
      </g>
      <g transform="translate(28.346,149.13)" font-size="10px" font-family="Meiryo, sans-serif">
         <text x="60.945px" y="9.6px" text-anchor="middle">
            図形データ (頂点位置)
         </text>
      </g>
      <g transform="translate(99.986,174.776)" font-size="10px" font-family="Meiryo, sans-serif">
         <text x="0px" y="9.6px">
            頂点
         </text>
      </g>
      <g transform="translate(31.944,231.325)" font-size="10px" font-family="Meiryo, sans-serif">
         <text x="0px" y="9.6px">
            頂点
         </text>
      </g>
      <g transform="translate(124.763,261.298)" font-size="10px" font-family="Meiryo, sans-serif">
         <text x="0px" y="9.6px">
            頂点
         </text>
      </g>
      <g transform="translate(70.809,263.044)" font-size="10px" font-family="Meiryo, sans-serif">
         <text x="0px" y="9.6px">
            (三角形)
         </text>
      </g>
      <g transform="translate(124.963,44.608)" font-size="10px" font-family="Meiryo, sans-serif">
         <text x="0px" y="9.6px">
            端点
         </text>
      </g>
      <g transform="translate(35.2,104.927)" font-size="10px" font-family="Meiryo, sans-serif">
         <text x="0px" y="9.6px">
            端点
         </text>
      </g>
      <g transform="translate(74.791,120.388)" font-size="10px" font-family="Meiryo, sans-serif">
         <text x="0px" y="9.6px">
            (線分)
         </text>
      </g>
   </g>
</svg>